<svg width="692" height="567" viewBox="0 0 692 567" fill="none" xmlns="http://www.w3.org/2000/svg">
<g clip-path="url(#clip0)">
<path d="M514.897 444.393H300.337C296.912 444.389 293.628 443.027 291.205 440.605C288.783 438.183 287.421 434.9 287.417 431.475V277.242C287.42 273.818 288.783 270.534 291.205 268.112C293.627 265.691 296.912 264.328 300.337 264.324H514.897C518.323 264.328 521.607 265.691 524.029 268.112C526.451 270.534 527.814 273.818 527.818 277.242V431.475C527.814 434.9 526.451 438.183 524.029 440.605C521.607 443.027 518.323 444.389 514.897 444.393V444.393Z" fill="#E6E6E6"/>
<path d="M304.303 434.095H510.931C512.592 434.095 514.186 433.436 515.361 432.261C516.535 431.086 517.195 429.493 517.195 427.832V280.885C517.195 279.224 516.535 277.631 515.361 276.457C514.186 275.282 512.592 274.622 510.931 274.622H304.303C302.642 274.622 301.048 275.282 299.874 276.457C298.699 277.631 298.039 279.224 298.039 280.885V427.832C298.039 429.493 298.699 431.086 299.874 432.261C301.048 433.436 302.642 434.095 304.303 434.095Z" fill="white"/>
<path d="M227.48 237.334H12.9206C9.495 237.33 6.21085 235.968 3.78862 233.546C1.36638 231.124 0.00386951 227.841 0 224.416V70.1836C0.00386744 66.7587 1.36638 63.4752 3.78862 61.0535C6.21085 58.6317 9.495 57.2695 12.9206 57.2656H227.48C230.906 57.2695 234.19 58.6317 236.612 61.0535C239.034 63.4752 240.397 66.7587 240.401 70.1836V224.416C240.397 227.841 239.034 231.124 236.612 233.546C234.19 235.968 230.906 237.33 227.48 237.334V237.334Z" fill="#E6E6E6"/>
<path d="M16.8866 227.036H223.514C225.176 227.036 226.769 226.377 227.944 225.202C229.119 224.027 229.779 222.434 229.779 220.773V73.8262C229.779 72.1651 229.119 70.572 227.944 69.3975C226.769 68.2229 225.176 67.563 223.514 67.563H16.8866C15.2251 67.563 13.6317 68.2229 12.4569 69.3975C11.2821 70.572 10.6221 72.1651 10.6221 73.8262V220.773C10.6221 222.434 11.2821 224.027 12.4569 225.202C13.6317 226.377 15.2251 227.036 16.8866 227.036Z" fill="white"/>
<path d="M486.301 320.281H354.315C353.696 320.281 353.083 320.403 352.511 320.64C351.939 320.877 351.42 321.224 350.982 321.662C350.544 322.099 350.197 322.619 349.96 323.191C349.723 323.762 349.601 324.375 349.601 324.994C349.601 325.613 349.723 326.226 349.96 326.798C350.197 327.369 350.544 327.889 350.982 328.327C351.42 328.764 351.939 329.111 352.511 329.348C353.083 329.585 353.696 329.707 354.315 329.707H486.301C487.551 329.707 488.75 329.21 489.634 328.327C490.518 327.443 491.015 326.244 491.015 324.994C491.015 323.744 490.518 322.545 489.634 321.662C488.75 320.778 487.551 320.281 486.301 320.281V320.281Z" fill="#E6E6E6"/>
<path d="M354.315 349.283C353.696 349.283 353.083 349.405 352.511 349.642C351.939 349.879 351.42 350.226 350.982 350.664C350.544 351.101 350.197 351.621 349.96 352.193C349.723 352.764 349.601 353.377 349.601 353.996C349.601 354.615 349.723 355.228 349.96 355.8C350.197 356.371 350.544 356.891 350.982 357.329C351.42 357.766 351.939 358.113 352.511 358.35C353.083 358.587 353.696 358.709 354.315 358.709H486.301C487.551 358.709 488.75 358.212 489.634 357.329C490.518 356.445 491.015 355.246 491.015 353.996C491.015 352.746 490.518 351.547 489.634 350.664C488.75 349.78 487.551 349.283 486.301 349.283H354.315Z" fill="#E6E6E6"/>
<path d="M354.315 378.285C353.065 378.285 351.866 378.782 350.982 379.666C350.098 380.55 349.601 381.748 349.601 382.998C349.601 384.248 350.098 385.447 350.982 386.331C351.866 387.215 353.065 387.711 354.315 387.711H486.301C487.551 387.711 488.75 387.215 489.634 386.331C490.518 385.447 491.015 384.248 491.015 382.998C491.015 381.748 490.518 380.55 489.634 379.666C488.75 378.782 487.551 378.285 486.301 378.285H354.315Z" fill="#E6E6E6"/>
<path d="M329.296 331.157C332.5 331.157 335.097 328.56 335.097 325.357C335.097 322.153 332.5 319.556 329.296 319.556C326.091 319.556 323.494 322.153 323.494 325.357C323.494 328.56 326.091 331.157 329.296 331.157Z" fill="#C69600"/>
<path d="M329.296 360.159C332.5 360.159 335.097 357.562 335.097 354.359C335.097 351.155 332.5 348.558 329.296 348.558C326.091 348.558 323.494 351.155 323.494 354.359C323.494 357.562 326.091 360.159 329.296 360.159Z" fill="#E6E6E6"/>
<path d="M329.296 389.161C332.5 389.161 335.097 386.564 335.097 383.361C335.097 380.157 332.5 377.56 329.296 377.56C326.091 377.56 323.494 380.157 323.494 383.361C323.494 386.564 326.091 389.161 329.296 389.161Z" fill="#E6E6E6"/>
<path d="M433.724 324.994C433.724 325.613 433.602 326.226 433.365 326.798C433.128 327.369 432.781 327.889 432.344 328.327C431.906 328.764 431.386 329.111 430.814 329.348C430.242 329.585 429.629 329.707 429.01 329.707H354.485C353.32 329.724 352.189 329.32 351.299 328.569C350.409 327.818 349.821 326.771 349.642 325.62C349.554 324.955 349.609 324.278 349.804 323.635C349.998 322.993 350.328 322.399 350.77 321.893C351.212 321.388 351.757 320.983 352.368 320.705C352.98 320.427 353.643 320.282 354.315 320.281H429.01C430.261 320.281 431.46 320.778 432.344 321.662C433.228 322.545 433.724 323.744 433.724 324.994V324.994Z" fill="#C69600"/>
<path d="M407.617 244.513C418.031 244.513 426.472 236.073 426.472 225.662C426.472 215.251 418.031 206.811 407.617 206.811C397.204 206.811 388.762 215.251 388.762 225.662C388.762 236.073 397.204 244.513 407.617 244.513Z" fill="#E6E6E6"/>
<path d="M416.923 227.172C417.757 222.034 414.267 217.192 409.127 216.358C403.988 215.524 399.145 219.014 398.311 224.152C397.477 229.291 400.967 234.132 406.107 234.966C411.246 235.8 416.089 232.31 416.923 227.172Z" fill="white"/>
<path d="M32.1611 142.822C30.9221 142.822 29.7339 143.314 28.8579 144.189C27.9818 145.065 27.4896 146.253 27.4896 147.492C27.4896 148.731 27.9818 149.919 28.8579 150.795C29.7339 151.671 30.9221 152.163 32.1611 152.163H208.24C209.479 152.163 210.667 151.671 211.543 150.795C212.419 149.919 212.911 148.731 212.911 147.492C212.911 146.253 212.419 145.065 211.543 144.189C210.667 143.314 209.479 142.822 208.24 142.822H32.1611Z" fill="#E6E6E6"/>
<path d="M32.1611 171.563C30.9221 171.563 29.7339 172.055 28.8579 172.931C27.9818 173.807 27.4896 174.995 27.4896 176.234C27.4896 177.472 27.9818 178.66 28.8579 179.536C29.7339 180.412 30.9221 180.904 32.1611 180.904H208.24C209.479 180.904 210.667 180.412 211.543 179.536C212.419 178.66 212.911 177.472 212.911 176.234C212.911 174.995 212.419 173.807 211.543 172.931C210.667 172.055 209.479 171.563 208.24 171.563H32.1611Z" fill="#E6E6E6"/>
<path d="M110.857 201.742C109.618 201.742 108.43 202.234 107.554 203.11C106.678 203.986 106.186 205.174 106.186 206.412C106.186 207.651 106.678 208.839 107.554 209.715C108.43 210.591 109.618 211.083 110.857 211.083H129.543C130.782 211.083 131.97 210.591 132.846 209.715C133.723 208.839 134.215 207.651 134.215 206.412C134.215 205.174 133.723 203.986 132.846 203.11C131.97 202.234 130.782 201.742 129.543 201.742H110.857Z" fill="#C69600"/>
<path d="M95.1614 83.5161C94.7803 83.5165 94.4149 83.668 94.1454 83.9375C93.8759 84.2069 93.7244 84.5722 93.724 84.9532V121.434C93.7244 121.815 93.8759 122.18 94.1454 122.449C94.4149 122.719 94.7803 122.87 95.1614 122.871H145.239C145.62 122.87 145.986 122.719 146.255 122.449C146.525 122.18 146.676 121.815 146.677 121.434V84.9532C146.676 84.5722 146.525 84.2069 146.255 83.9374C145.986 83.668 145.62 83.5165 145.239 83.5161L95.1614 83.5161Z" fill="#C69600"/>
<path d="M120.2 107.063C124.566 107.063 128.106 103.524 128.106 99.1589C128.106 94.7936 124.566 91.2549 120.2 91.2549C115.834 91.2549 112.295 94.7936 112.295 99.1589C112.295 103.524 115.834 107.063 120.2 107.063Z" fill="white"/>
<path d="M133.137 119.278C133.14 120.527 132.844 121.759 132.274 122.871H108.126C107.511 121.666 107.215 120.323 107.268 118.971C107.32 117.619 107.719 116.303 108.426 115.149C109.133 113.995 110.124 113.042 111.305 112.381C112.486 111.72 113.816 111.374 115.17 111.374H125.231C127.327 111.373 129.337 112.204 130.819 113.685C132.302 115.165 133.136 117.174 133.137 119.269V119.278Z" fill="white"/>
<path d="M120.2 107.063C124.566 107.063 128.106 103.524 128.106 99.1589C128.106 94.7936 124.566 91.2549 120.2 91.2549C115.834 91.2549 112.295 94.7936 112.295 99.1589C112.295 103.524 115.834 107.063 120.2 107.063Z" fill="white"/>
<path d="M133.137 119.278C133.14 120.527 132.844 121.759 132.274 122.871H108.126C107.511 121.666 107.215 120.323 107.268 118.971C107.32 117.619 107.719 116.303 108.426 115.149C109.133 113.995 110.124 113.042 111.305 112.381C112.486 111.72 113.816 111.374 115.17 111.374H125.231C127.327 111.373 129.337 112.204 130.819 113.685C132.302 115.165 133.136 117.174 133.137 119.269V119.278Z" fill="white"/>
<path d="M120.2 37.3642C130.52 37.3642 138.886 28.9999 138.886 18.6821C138.886 8.36426 130.52 0 120.2 0C109.88 0 101.515 8.36426 101.515 18.6821C101.515 28.9999 109.88 37.3642 120.2 37.3642Z" fill="#E6E6E6"/>
<path d="M120.2 28.0232C125.36 28.0232 129.543 23.841 129.543 18.6821C129.543 13.5232 125.36 9.34106 120.2 9.34106C115.04 9.34106 110.857 13.5232 110.857 18.6821C110.857 23.841 115.04 28.0232 120.2 28.0232Z" fill="#C69600"/>
<path d="M585.825 556.834L576.873 556.833L572.616 522.31L585.828 522.311L585.825 556.834Z" fill="#E9D38F"/>
<path d="M570.479 554.276H587.743V565.144H559.608C559.608 563.717 559.889 562.304 560.436 560.985C560.982 559.666 561.783 558.468 562.792 557.459C563.801 556.45 565 555.649 566.319 555.103C567.638 554.557 569.051 554.276 570.479 554.276V554.276Z" fill="#4E4637"/>
<path d="M634.079 556.834L625.126 556.833L620.87 522.31L634.082 522.311L634.079 556.834Z" fill="#E9D38F"/>
<path d="M618.732 554.276H635.997V565.144H607.862C607.862 563.717 608.143 562.304 608.689 560.985C609.235 559.666 610.036 558.468 611.045 557.459C612.055 556.45 613.253 555.649 614.572 555.103C615.891 554.557 617.305 554.276 618.732 554.276V554.276Z" fill="#4E4637"/>
<path d="M607.861 311.413C618.483 311.413 627.094 302.803 627.094 292.184C627.094 281.564 618.483 272.955 607.861 272.955C597.239 272.955 588.628 281.564 588.628 292.184C588.628 302.803 597.239 311.413 607.861 311.413Z" fill="#E9D38F"/>
<path d="M542.097 417.588C542.232 416.523 542.598 415.501 543.17 414.593C543.742 413.685 544.507 412.913 545.41 412.333C546.313 411.752 547.332 411.376 548.395 411.232C549.459 411.088 550.541 411.178 551.566 411.498L562.315 398.615L571.738 403.236L556.304 421.216C555.653 422.901 554.407 424.29 552.8 425.118C551.194 425.947 549.34 426.158 547.589 425.71C545.838 425.263 544.312 424.189 543.299 422.692C542.287 421.195 541.86 419.379 542.097 417.588V417.588Z" fill="#E9D38F"/>
<path d="M634.604 430.617C634.146 429.646 633.906 428.587 633.902 427.514C633.897 426.44 634.129 425.379 634.579 424.405C635.029 423.431 635.687 422.567 636.508 421.875C637.328 421.182 638.29 420.678 639.326 420.398L641.484 403.761L651.916 402.606L648.539 426.058C648.894 427.83 648.588 429.67 647.677 431.231C646.766 432.791 645.314 433.964 643.596 434.526C641.879 435.088 640.015 435 638.357 434.28C636.7 433.559 635.364 432.256 634.604 430.617L634.604 430.617Z" fill="#E9D38F"/>
<path d="M623.934 328.503C624.957 327.19 626.308 326.17 627.851 325.546C629.394 324.922 631.074 324.716 632.723 324.949C634.371 325.181 635.928 325.845 637.238 326.871C638.548 327.898 639.564 329.253 640.183 330.797L655.947 370.131C657.558 374.15 658.072 378.526 657.436 382.809L652.301 417.381C652.234 417.827 652.073 418.253 651.826 418.631C651.58 419.009 651.255 419.329 650.873 419.569C650.492 419.81 650.063 419.965 649.616 420.025C649.169 420.084 648.714 420.047 648.283 419.914L641.518 417.837C640.817 417.622 640.214 417.168 639.814 416.555C639.414 415.941 639.241 415.207 639.326 414.479C641.714 394.125 638.558 373.505 630.193 354.797L622.761 338.177C622.06 336.61 621.799 334.882 622.006 333.178C622.213 331.473 622.879 329.858 623.934 328.503V328.503Z" fill="#C69600"/>
<path d="M612.544 311.412C615.439 311.474 618.314 310.924 620.98 309.796C623.647 308.669 626.045 306.99 628.016 304.869C629.987 302.749 631.488 300.236 632.418 297.495C633.349 294.754 633.689 291.847 633.416 288.965C633.143 286.084 632.263 283.292 630.834 280.775C629.405 278.257 627.459 276.07 625.125 274.358C622.79 272.646 620.12 271.447 617.289 270.84C614.458 270.233 611.53 270.233 608.699 270.837C604.469 268.27 599.552 266.542 594.624 266.982C589.695 267.421 584.821 270.346 582.978 274.938C581.135 279.529 583.115 285.58 587.697 287.446C590.635 288.642 593.953 288.062 597.088 287.58C600.224 287.098 603.644 286.783 606.373 288.4C609.101 290.018 610.328 294.355 607.884 296.377C606.589 297.491 605.664 298.974 605.232 300.627C604.801 302.28 604.883 304.026 605.469 305.631C606.697 308.807 610.049 311.358 612.544 311.412Z" fill="#4E4637"/>
<path d="M636.406 416.828L639.818 546.273C639.829 546.704 639.751 547.134 639.589 547.533C639.426 547.933 639.183 548.295 638.874 548.597C638.565 548.898 638.197 549.133 637.793 549.285C637.389 549.438 636.958 549.505 636.527 549.483L625.288 548.91C624.571 548.873 623.888 548.591 623.354 548.111C622.82 547.632 622.467 546.983 622.355 546.274L608.987 462.198C608.93 461.838 608.749 461.51 608.475 461.269C608.202 461.028 607.853 460.89 607.489 460.879C607.125 460.868 606.768 460.984 606.48 461.207C606.192 461.43 605.991 461.747 605.912 462.103L587.817 543.052C587.72 543.485 587.533 543.892 587.267 544.247C587.001 544.602 586.663 544.896 586.275 545.111C585.886 545.325 585.457 545.454 585.015 545.491C584.573 545.527 584.129 545.468 583.711 545.32L572.557 544.639C571.912 544.409 571.359 543.975 570.985 543.402C570.61 542.829 570.433 542.149 570.482 541.466L580.219 415.603L636.406 416.828Z" fill="#4E4637"/>
<path d="M641.881 355.345C643.763 335.729 629.337 317.987 609.677 316.591C601.206 315.99 588.055 315.775 583.719 326.876C570.66 360.317 593.522 359.504 585.645 388.477C577.768 417.45 570.811 419.11 581.619 421.203C592.426 423.295 641.027 435.645 639.032 415.253C637.805 402.718 640.004 374.912 641.881 355.345Z" fill="#C69600"/>
<path d="M586.032 323.474C587.584 322.874 589.268 322.693 590.912 322.95C592.556 323.208 594.104 323.895 595.398 324.941C596.692 325.988 597.687 327.357 598.283 328.911C598.879 330.465 599.054 332.148 598.791 333.792L592.653 372.147C591.603 378.706 588.829 384.868 584.614 390.002L564.678 414.291C564.392 414.64 564.034 414.923 563.628 415.12C563.223 415.318 562.779 415.425 562.328 415.436C561.878 415.446 561.43 415.359 561.016 415.18C560.601 415.001 560.231 414.735 559.929 414.4L555.193 409.142C554.703 408.598 554.419 407.899 554.391 407.167C554.363 406.435 554.593 405.716 555.04 405.135L556.435 403.326C568.033 388.277 575.35 370.376 577.612 351.514L580.053 331.17C580.257 329.466 580.922 327.849 581.975 326.493C583.028 325.138 584.431 324.094 586.032 323.474V323.474Z" fill="#C69600"/>
<path d="M691.217 567H489.186C488.979 567 488.78 566.917 488.633 566.771C488.486 566.624 488.403 566.425 488.403 566.217C488.403 566.009 488.486 565.81 488.633 565.663C488.78 565.517 488.979 565.434 489.186 565.434H691.217C691.425 565.434 691.624 565.517 691.771 565.663C691.918 565.81 692 566.009 692 566.217C692 566.425 691.918 566.624 691.771 566.771C691.624 566.917 691.425 567 691.217 567Z" fill="#CCCCCC"/>
</g>
<defs>
<clipPath id="clip0">
<rect width="692" height="567" fill="white"/>
</clipPath>
</defs>
</svg>
