<svg width="173" height="72" viewBox="0 0 173 72" fill="none" xmlns="http://www.w3.org/2000/svg">
<g clip-path="url(#clip0)">
<path fill-rule="evenodd" clip-rule="evenodd" d="M173 56V16C173 10.3995 173 7.59921 171.91 5.46009C170.951 3.57847 169.422 2.04867 167.54 1.08993C165.401 0 162.601 0 157 0H86.5H16C10.3995 0 7.59921 0 5.46009 1.08993C3.57847 2.04867 2.04867 3.57847 1.08993 5.46009C0 7.59921 0 10.3995 0 16V56C0 61.6005 0 64.4008 1.08993 66.5399C2.04867 68.4215 3.57847 69.9513 5.46009 70.9101C7.59921 72 10.3995 72 16 72H157C162.601 72 165.401 72 167.54 70.9101C169.422 69.9513 170.951 68.4215 171.91 66.5399C173 64.4008 173 61.6005 173 56ZM36.5293 35.3794V26.5952C36.5293 25.5584 36.29 24.7894 35.8115 24.2881C35.3444 23.7754 34.7292 23.519 33.9658 23.519C33.1911 23.519 32.5758 23.7754 32.1201 24.2881C31.6758 24.8008 31.4536 25.5698 31.4536 26.5952V45.2231C31.4536 46.0207 31.4707 46.6302 31.5049 47.0518C31.5391 47.4733 31.6359 47.8436 31.7954 48.1626C32.0119 48.55 32.3195 48.8576 32.7183 49.0854C33.117 49.3133 33.5329 49.4272 33.9658 49.4272C34.7178 49.4272 35.333 49.1766 35.8115 48.6753C36.29 48.1626 36.5293 47.3822 36.5293 46.334V41.1558L40.6821 37.1738L46.6807 46.4023C46.9199 46.8125 47.1934 47.2682 47.501 47.7695C47.8086 48.2708 48.1846 48.6753 48.6289 48.9829C49.0732 49.2791 49.6486 49.4272 50.355 49.4272C51.1069 49.4272 51.6994 49.2222 52.1323 48.812C52.5767 48.4019 52.7988 47.9176 52.7988 47.3594C52.7988 46.8581 52.6735 46.3454 52.4229 45.8213C52.1722 45.2858 51.7962 44.6649 51.2949 43.9585L44.1855 33.7729L50.355 27.9282C51.1183 27.1991 51.5 26.4642 51.5 25.7236C51.5 25.1084 51.2721 24.59 50.8164 24.1685C50.3721 23.7355 49.7853 23.519 49.0562 23.519C48.4979 23.519 48.0479 23.6387 47.7061 23.8779C47.3757 24.1172 46.9712 24.4875 46.4927 24.9888L36.5293 35.3794ZM59.5664 41.0874H68.6924C69.9115 41.0874 70.8571 40.9165 71.5293 40.5747C72.2015 40.2215 72.5376 39.4582 72.5376 38.2847C72.5376 37.02 72.2129 35.7782 71.5635 34.5591C70.9141 33.34 69.9342 32.3488 68.624 31.5854C67.3252 30.8107 65.7643 30.4233 63.9414 30.4233C62.54 30.4233 61.264 30.6512 60.1133 31.1069C58.9626 31.5513 57.9941 32.195 57.208 33.0381C56.4219 33.8812 55.8237 34.8952 55.4136 36.0801C55.0034 37.2536 54.7983 38.5296 54.7983 39.9082C54.7983 42.8363 55.63 45.1548 57.2935 46.8638C58.9569 48.5728 61.2868 49.4272 64.2832 49.4272C65.5934 49.4272 66.7498 49.2563 67.7524 48.9146C68.7664 48.5728 69.6038 48.1455 70.2646 47.6328C70.9369 47.1087 71.4381 46.5675 71.7686 46.0093C72.099 45.4396 72.2642 44.944 72.2642 44.5225C72.2642 44.0439 72.1161 43.6737 71.8198 43.4116C71.5236 43.1496 71.1362 43.0186 70.6577 43.0186C70.2134 43.0186 69.8716 43.1211 69.6323 43.3262C69.0513 43.873 68.5785 44.306 68.2139 44.625C67.8493 44.944 67.4505 45.2459 67.0176 45.5308C66.5846 45.8042 66.1346 46.0093 65.6675 46.146C65.2118 46.2713 64.7048 46.334 64.1465 46.334C63.3148 46.334 62.5514 46.1289 61.8564 45.7188C61.1729 45.3086 60.6203 44.6991 60.1987 43.8901C59.7886 43.0812 59.5778 42.147 59.5664 41.0874ZM68.0259 38.4385H59.5664C59.7259 36.8662 60.1759 35.6813 60.9165 34.8838C61.6685 34.0749 62.6255 33.6704 63.7876 33.6704C65.0067 33.6704 65.9865 34.0692 66.7271 34.8667C67.479 35.6528 67.9119 36.8434 68.0259 38.4385ZM80.2964 48.9658L79.8691 50.0083C79.5501 50.7716 79.2653 51.347 79.0146 51.7344C78.7754 52.1331 78.502 52.4123 78.1943 52.5718C77.8867 52.7313 77.4652 52.811 76.9297 52.811C76.7132 52.811 76.4569 52.7769 76.1606 52.7085C75.9214 52.6401 75.6764 52.606 75.4258 52.606C74.7878 52.606 74.3036 52.7484 73.9731 53.0332C73.6541 53.3294 73.4946 53.7453 73.4946 54.2808C73.4946 55.0669 73.8364 55.6081 74.52 55.9043C75.2036 56.2005 76.229 56.3486 77.5962 56.3486C78.9976 56.3486 80.1084 56.1322 80.9287 55.6992C81.7604 55.2777 82.4269 54.6681 82.9282 53.8706C83.4295 53.0731 83.9422 51.9736 84.4663 50.5723L90.5503 34.6445C90.6984 34.2344 90.8237 33.8299 90.9263 33.4312C91.0288 33.0324 91.1029 32.7248 91.1484 32.5083C91.1484 32.1551 91.0573 31.819 90.875 31.5C90.7041 31.181 90.4535 30.9303 90.123 30.748C89.804 30.5544 89.4679 30.4575 89.1147 30.4575C88.6248 30.4575 88.2432 30.543 87.9697 30.7139C87.7077 30.8848 87.457 31.2152 87.2178 31.7051C86.9785 32.195 86.7108 32.8729 86.4146 33.7388L82.6719 44.4199L78.7241 32.9355C78.4621 32.138 78.1602 31.5285 77.8184 31.1069C77.4766 30.674 76.9696 30.4575 76.2974 30.4575C75.91 30.4575 75.534 30.5601 75.1694 30.7651C74.8162 30.9702 74.5371 31.2437 74.332 31.5854C74.127 31.9272 74.0244 32.2975 74.0244 32.6963C74.0244 33.0723 74.201 33.6761 74.5542 34.5078L80.2964 48.9658ZM94.5322 26.356V46.5903C94.5322 47.5018 94.743 48.2025 95.1646 48.6924C95.5975 49.1823 96.1558 49.4272 96.8394 49.4272C97.5343 49.4272 98.0983 49.1937 98.5312 48.7266C98.9756 48.248 99.1978 47.536 99.1978 46.5903V26.356C99.1978 25.4103 98.9813 24.7039 98.5483 24.2368C98.1154 23.7583 97.5457 23.519 96.8394 23.519C96.133 23.519 95.569 23.7583 95.1475 24.2368C94.7373 24.7153 94.5322 25.4217 94.5322 26.356ZM107.931 41.0874H117.057C118.276 41.0874 119.221 40.9165 119.894 40.5747C120.566 40.2215 120.902 39.4582 120.902 38.2847C120.902 37.02 120.577 35.7782 119.928 34.5591C119.278 33.34 118.299 32.3488 116.988 31.5854C115.689 30.8107 114.129 30.4233 112.306 30.4233C110.904 30.4233 109.628 30.6512 108.478 31.1069C107.327 31.5513 106.358 32.195 105.572 33.0381C104.786 33.8812 104.188 34.8952 103.778 36.0801C103.368 37.2536 103.163 38.5296 103.163 39.9082C103.163 42.8363 103.994 45.1548 105.658 46.8638C107.321 48.5728 109.651 49.4272 112.647 49.4272C113.958 49.4272 115.114 49.2563 116.117 48.9146C117.131 48.5728 117.968 48.1455 118.629 47.6328C119.301 47.1087 119.802 46.5675 120.133 46.0093C120.463 45.4396 120.628 44.944 120.628 44.5225C120.628 44.0439 120.48 43.6737 120.184 43.4116C119.888 43.1496 119.5 43.0186 119.022 43.0186C118.578 43.0186 118.236 43.1211 117.997 43.3262C117.416 43.873 116.943 44.306 116.578 44.625C116.214 44.944 115.815 45.2459 115.382 45.5308C114.949 45.8042 114.499 46.0093 114.032 46.146C113.576 46.2713 113.069 46.334 112.511 46.334C111.679 46.334 110.916 46.1289 110.221 45.7188C109.537 45.3086 108.985 44.6991 108.563 43.8901C108.153 43.0812 107.942 42.147 107.931 41.0874ZM116.39 38.4385H107.931C108.09 36.8662 108.54 35.6813 109.281 34.8838C110.033 34.0749 110.99 33.6704 112.152 33.6704C113.371 33.6704 114.351 34.0692 115.091 34.8667C115.843 35.6528 116.276 36.8434 116.39 38.4385ZM137.633 46.2998V46.7612C137.633 47.6157 137.838 48.2765 138.248 48.7437C138.67 49.1994 139.199 49.4272 139.837 49.4272C140.487 49.4272 141.017 49.2051 141.427 48.7607C141.837 48.3164 142.042 47.6499 142.042 46.7612V26.1851C142.042 25.3078 141.848 24.647 141.461 24.2026C141.085 23.7469 140.544 23.519 139.837 23.519C139.131 23.519 138.584 23.764 138.197 24.2539C137.821 24.7438 137.633 25.4673 137.633 26.4243V33.3115C136.756 32.3545 135.855 31.6481 134.933 31.1924C134.01 30.7253 132.876 30.4917 131.532 30.4917C129.208 30.4917 127.333 31.3063 125.909 32.9355C124.485 34.5648 123.773 36.8377 123.773 39.7544C123.773 41.133 123.95 42.4147 124.303 43.5996C124.667 44.7845 125.197 45.8156 125.892 46.6929C126.587 47.5701 127.407 48.248 128.353 48.7266C129.31 49.1937 130.347 49.4272 131.463 49.4272C132.306 49.4272 133.081 49.3076 133.788 49.0684C134.505 48.8405 135.166 48.5044 135.77 48.0601C136.385 47.6043 137.006 47.0176 137.633 46.2998ZM129.037 43.1382C128.649 42.2495 128.456 41.1729 128.456 39.9082C128.456 38.7119 128.638 37.6637 129.002 36.7637C129.378 35.8522 129.903 35.1572 130.575 34.6787C131.247 34.1888 132.01 33.9438 132.865 33.9438C133.685 33.9438 134.437 34.1831 135.121 34.6616C135.816 35.1287 136.362 35.8123 136.761 36.7124C137.171 37.6011 137.376 38.6663 137.376 39.9082C137.376 41.2298 137.171 42.335 136.761 43.2236C136.362 44.1009 135.821 44.756 135.138 45.189C134.465 45.6105 133.719 45.8213 132.899 45.8213C132.09 45.8213 131.344 45.5991 130.66 45.1548C129.977 44.6991 129.435 44.0269 129.037 43.1382Z" fill="#47FFA3"/>
<path fill-rule="evenodd" clip-rule="evenodd" d="M157.318 72C162.707 71.9996 165.442 71.9791 167.54 70.9101C169.422 69.9513 170.951 68.4215 171.91 66.5399C173 64.4008 173 61.6005 173 56V16C173 10.3995 173 7.59921 171.91 5.46009C170.951 3.57847 169.422 2.04867 167.54 1.08993C165.401 0 162.601 0 157 0H144.853L123.743 3L86.5 7.99999H149C154.601 7.99999 157.401 7.99999 159.54 9.08993C161.422 10.0487 162.951 11.5785 163.91 13.4601C165 15.5992 165 18.3995 165 24V36V48C165 53.6005 165 56.4008 163.91 58.5399C162.951 60.4215 161.422 61.9513 159.54 62.91C157.401 64 154.601 64 149 64H86.5H24C18.3995 64 15.5992 64 13.4601 62.91C11.5785 61.9513 10.0487 60.4215 9.08995 58.5399C8.00001 56.4008 8.00001 53.6005 8.00001 48V52.0557C8.00001 57.3654 5.09418 62.2337 0.455994 64.7618C0.609687 65.4194 0.815184 66.0006 1.08995 66.5399C2.04868 68.4215 3.57849 69.9513 5.46011 70.9101C7.5583 71.9791 10.2926 71.9996 15.6817 72C15.7868 72 15.8929 72 16 72L86.5 72L157 72C157.107 72 157.213 72 157.318 72Z" fill="black" fill-opacity="0.4"/>
<path d="M8 48C8 53.6005 8 56.4008 9.08993 58.5399C10.0487 60.4215 11.5785 61.9513 13.4601 62.9101C15.5992 64 18.3995 64 24 64L36 64V64C20.3175 64.5408 7.45922 51.6825 8 36V36L8 48Z" fill="black" fill-opacity="0.25"/>
<path d="M8 34.0954L8 36C7.97794 35.3602 7.97818 34.7251 8 34.0954L8 24C8 18.3995 8 15.5992 9.08993 13.4601C10.0487 11.5785 11.5785 10.0487 13.4601 9.08993C15.5992 8 18.3995 8 24 8L34.0954 8C34.7251 7.97818 35.3602 7.97794 36 8L34.0954 8C19.9203 8.49126 8.49126 19.9203 8 34.0954Z" fill="black" fill-opacity="0.25"/>
<path d="M165.015 24.0197C165.022 18.4129 165.025 15.6096 163.936 13.4678C162.978 11.5838 161.448 10.0518 159.565 9.09161C157.425 8 154.622 8 149.015 8L137 8V8C152.683 7.45922 165.541 20.3175 165 36V36L165.015 24.0197Z" fill="black" fill-opacity="0.25"/>
<path d="M148.962 64.0285C154.574 64.0418 157.381 64.0485 159.525 62.9604C161.411 62.0034 162.945 60.4729 163.907 58.5891C165 56.4474 165 53.6411 165 48.0285V36V36C165.541 51.6825 152.683 64.5408 137 64V64L148.962 64.0285Z" fill="black" fill-opacity="0.25"/>
</g>
<defs>
<clipPath id="clip0">
<path d="M0 16C0 10.3995 0 7.59921 1.08993 5.46009C2.04867 3.57847 3.57847 2.04867 5.46009 1.08993C7.59921 0 10.3995 0 16 0H157C162.601 0 165.401 0 167.54 1.08993C169.422 2.04867 170.951 3.57847 171.91 5.46009C173 7.59921 173 10.3995 173 16V56C173 61.6005 173 64.4008 171.91 66.5399C170.951 68.4215 169.422 69.9513 167.54 70.9101C165.401 72 162.601 72 157 72H16C10.3995 72 7.59921 72 5.46009 70.9101C3.57847 69.9513 2.04867 68.4215 1.08993 66.5399C0 64.4008 0 61.6005 0 56V16Z" fill="white"/>
</clipPath>
</defs>
</svg>
