<svg width="17" height="20" viewBox="0 0 17 20" fill="none" xmlns="http://www.w3.org/2000/svg">
<path fill-rule="evenodd" clip-rule="evenodd" d="M1.5 0.25C1.08579 0.25 0.75 0.585786 0.75 1V19C0.75 19.4142 1.08579 19.75 1.5 19.75H15.5C15.9142 19.75 16.25 19.4142 16.25 19V4.5C16.25 4.08579 15.9142 3.75 15.5 3.75C13.9852 3.75 13.0799 3.61022 12.541 3.25096C12.0933 2.95246 11.75 2.38777 11.75 1C11.75 0.585786 11.4142 0.25 11 0.25H1.5ZM7.75 1.75H2.25V6.25H7.75V1.75ZM9.25 6.25V1.75H10.2831C10.3988 2.98373 10.8273 3.91123 11.709 4.49904C12.5054 5.02997 13.5651 5.19664 14.75 5.23817V6.25H9.25ZM7.75 7.75H2.25V12.25H7.75V7.75ZM9.25 12.25V7.75H14.75V12.25H9.25ZM7.75 13.75H2.25V18.25H7.75V13.75ZM9.25 18.25V13.75H14.75V18.25H9.25Z" fill="#594621"/>
</svg>
