<?xml version="1.0" standalone="no"?><svg xmlns:xlink="http://www.w3.org/1999/xlink" xmlns="http://www.w3.org/2000/svg" viewBox="0 0 1000 1000.0000000000001" preserveAspectRatio="xMaxYMax slice"><g transform="scale(1.4347202295552368)"><rect x="0" y="0" width="697" height="697" fill="#dedede"/><rect x="23.233333333333334" y="23.233333333333334" width="11.616666666666667" height="11.616666666666667" fill="#dedede"/><rect x="23.23" y="23.23" width="5.81" height="5.81" fill="#cfcbc7"/><g transform="translate(23.23,23.23) scale(0.2905) rotate(0)"><path d="M13 0H20V7L7 20H0V13L13 0Z" fill="#dedede"/></g><rect x="29.04" y="23.23" width="5.81" height="5.81" fill="#c7c7c7"/><g transform="translate(29.04,23.23) scale(0.2905) rotate(0)"><path d="M10 0H20V10L10 20H0V10L10 0Z" fill="#785a43"/></g><rect x="23.23" y="29.04" width="5.81" height="5.81" fill="#dedede"/><g transform="translate(23.23,29.04) scale(0.2905) rotate(0)"><rect width="20" height="10" fill="#876d59"/></g><rect x="29.04" y="29.04" width="5.81" height="5.81" fill="#3e3e3e"/><g transform="translate(29.04,29.04) scale(0.2905) rotate(0)"><path d="M10 0H20V10L10 20H0V10L10 0Z" fill="#dedede"/></g><rect x="81.31666666666666" y="23.233333333333334" width="11.616666666666667" height="11.616666666666667" fill="#dedede"/><rect x="81.32" y="23.23" width="5.81" height="5.81" fill="#907967"/><g transform="translate(81.32,23.23) scale(0.2905) rotate(0)"><rect width="20" height="10" fill="#785942"/></g><rect x="87.13" y="23.23" width="5.81" height="5.81" fill="#8c7361"/><g transform="translate(87.13,23.23) scale(0.2905) rotate(0)"><path d="M13 0H20V7L7 20H0V13L13 0Z" fill="#161616"/></g><rect x="81.32" y="29.04" width="5.81" height="5.81" fill="#dedede"/><g transform="translate(81.32,29.04) scale(0.2905) rotate(0)"><path d="M10 0H20V10L10 20H0V10L10 0Z" fill="#927b69"/></g><rect x="87.13" y="29.04" width="5.81" height="5.81" fill="#c3c3c3"/><g transform="translate(87.13,29.04) scale(0.2905) rotate(0)"><rect width="20" height="10" fill="#858585"/></g><rect x="139.4" y="23.23" width="11.62" height="11.62" fill="#a18f81"/><g transform="translate(139.4,23.23) scale(0.581) rotate(0)"><path d="M13 0H20V7L7 20H0V13L13 0Z" fill="#484848"/></g><rect x="197.48333333333335" y="23.233333333333334" width="11.616666666666667" height="11.616666666666667" fill="#dedede"/><rect x="197.48" y="23.23" width="5.81" height="5.81" fill="#dedede"/><g transform="translate(197.48,23.23) scale(0.2905) rotate(0)"><path d="M10 0H20V10L10 20H0V10L10 0Z" fill="#c2c2c2"/></g><rect x="203.29" y="23.23" width="5.81" height="5.81" fill="#dddddc"/><g transform="translate(203.29,23.23) scale(0.2905) rotate(0)"><rect width="20" height="10" fill="#dedede"/></g><rect x="197.48" y="29.04" width="5.81" height="5.81" fill="#cfcac7"/><g transform="translate(197.48,29.04) scale(0.2905) rotate(0)"><rect width="20" height="10" fill="#d4d1ce"/></g><rect x="203.29" y="29.04" width="5.81" height="5.81" fill="#8c8c8c"/><g transform="translate(203.29,29.04) scale(0.2905) rotate(0)"><path d="M10 0H20V10L10 20H0V10L10 0Z" fill="#a18f81"/></g><rect x="255.56666666666666" y="23.233333333333334" width="11.616666666666667" height="11.616666666666667" fill="#dedede"/><rect x="255.57" y="23.23" width="5.81" height="5.81" fill="#917968"/><g transform="translate(255.57,23.23) scale(0.2905) rotate(0)"><path d="M10 0H20V10L10 20H0V10L10 0Z" fill="#a8988c"/></g><rect x="261.38" y="23.23" width="5.81" height="5.81" fill="#242424"/><g transform="translate(261.38,23.23) scale(0.2905) rotate(0)"><path d="M10 0H20V10L10 20H0V10L10 0Z" fill="#dedede"/></g><rect x="255.57" y="29.04" width="5.81" height="5.81" fill="#dedede"/><g transform="translate(255.57,29.04) scale(0.2905) rotate(0)"><rect width="20" height="10" fill="#aa9b8f"/></g><rect x="261.38" y="29.04" width="5.81" height="5.81" fill="#dedede"/><g transform="translate(261.38,29.04) scale(0.2905) rotate(0)"><rect width="20" height="10" fill="#dedede"/></g><rect x="313.65000000000003" y="23.233333333333334" width="11.616666666666667" height="11.616666666666667" fill="#dedede"/><rect x="313.65" y="23.23" width="5.81" height="5.81" fill="#1d1d1d"/><g transform="translate(313.65,23.23) scale(0.2905) rotate(0)"><rect width="20" height="10" fill="#afa095"/></g><rect x="319.46" y="23.23" width="5.81" height="5.81" fill="#dedede"/><g transform="translate(319.46,23.23) scale(0.2905) rotate(0)"><path d="M13 0H20V7L7 20H0V13L13 0Z" fill="#dedede"/></g><rect x="313.65" y="29.04" width="5.81" height="5.81" fill="#dedede"/><g transform="translate(313.65,29.04) scale(0.2905) rotate(0)"><rect width="20" height="10" fill="#909090"/></g><rect x="319.46" y="29.04" width="5.81" height="5.81" fill="#dedede"/><g transform="translate(319.46,29.04) scale(0.2905) rotate(0)"><rect width="20" height="10" fill="#dedede"/></g><rect x="371.73" y="23.23" width="11.62" height="11.62" fill="#2f2f2f"/><g transform="translate(371.73,23.23) scale(0.581) rotate(0)"><rect width="20" height="10" fill="#616161"/></g><rect x="429.82" y="23.23" width="11.62" height="11.62" fill="#dedede"/><g transform="translate(429.82,23.23) scale(0.581) rotate(0)"><path d="M10 0H20V10L10 20H0V10L10 0Z" fill="#896f5b"/></g><rect x="487.9" y="23.23" width="11.62" height="11.62" fill="#c4bdb7"/><g transform="translate(487.9,23.23) scale(0.581) rotate(0)"><path d="M13 0H20V7L7 20H0V13L13 0Z" fill="#c6beb9"/></g><rect x="545.98" y="23.23" width="11.62" height="11.62" fill="#959595"/><g transform="translate(545.98,23.23) scale(0.581) rotate(0)"><rect width="20" height="10" fill="#ad9f94"/></g><rect x="604.07" y="23.23" width="11.62" height="11.62" fill="#dedede"/><g transform="translate(604.07,23.23) scale(0.581) rotate(0)"><path d="M10 0H20V10L10 20H0V10L10 0Z" fill="#dedede"/></g><rect x="662.15" y="23.23" width="11.62" height="11.62" fill="#ccc7c3"/><g transform="translate(662.15,23.23) scale(0.581) rotate(0)"><path d="M13 0H20V7L7 20H0V13L13 0Z" fill="#d4d1ce"/></g><rect x="23.23" y="81.32" width="11.62" height="11.62" fill="#dedede"/><g transform="translate(23.23,81.32) scale(0.581) rotate(0)"><path d="M13 0H20V7L7 20H0V13L13 0Z" fill="#dedede"/></g><rect x="81.32" y="81.32" width="11.62" height="11.62" fill="#dedede"/><g transform="translate(81.32,81.32) scale(0.581) rotate(0)"><path d="M10 0H20V10L10 20H0V10L10 0Z" fill="#dedede"/></g><rect x="139.4" y="81.32" width="11.62" height="11.62" fill="#dedede"/><g transform="translate(139.4,81.32) scale(0.581) rotate(0)"><rect width="20" height="10" fill="#dedede"/></g><rect x="197.48" y="81.32" width="11.62" height="11.62" fill="#dedede"/><g transform="translate(197.48,81.32) scale(0.581) rotate(0)"><path d="M13 0H20V7L7 20H0V13L13 0Z" fill="#232323"/></g><rect x="255.56666666666666" y="81.31666666666666" width="11.616666666666667" height="11.616666666666667" fill="#dedede"/><rect x="255.57" y="81.32" width="5.81" height="5.81" fill="#cfcbc7"/><g transform="translate(255.57,81.32) scale(0.2905) rotate(0)"><path d="M13 0H20V7L7 20H0V13L13 0Z" fill="#8a715d"/></g><rect x="261.38" y="81.32" width="5.81" height="5.81" fill="#7d604a"/><g transform="translate(261.38,81.32) scale(0.2905) rotate(0)"><path d="M13 0H20V7L7 20H0V13L13 0Z" fill="#b4a79d"/></g><rect x="255.57" y="87.13" width="5.81" height="5.81" fill="#75553d"/><g transform="translate(255.57,87.13) scale(0.2905) rotate(0)"><rect width="20" height="10" fill="#c3c3c3"/></g><rect x="261.38" y="87.13" width="5.81" height="5.81" fill="#dedede"/><g transform="translate(261.38,87.13) scale(0.2905) rotate(0)"><rect width="20" height="10" fill="#dedede"/></g><rect x="313.65" y="81.32" width="11.62" height="11.62" fill="#535353"/><g transform="translate(313.65,81.32) scale(0.581) rotate(0)"><rect width="20" height="10" fill="#96806f"/></g><rect x="371.73" y="81.32" width="11.62" height="11.62" fill="#4e4e4e"/><g transform="translate(371.73,81.32) scale(0.581) rotate(0)"><path d="M10 0H20V10L10 20H0V10L10 0Z" fill="#d0cbc8"/></g><rect x="429.82" y="81.32" width="11.62" height="11.62" fill="#ccc7c3"/><g transform="translate(429.82,81.32) scale(0.581) rotate(0)"><rect width="20" height="10" fill="#dedede"/></g><rect x="487.9" y="81.32" width="11.62" height="11.62" fill="#a59487"/><g transform="translate(487.9,81.32) scale(0.581) rotate(0)"><rect width="20" height="10" fill="#dedede"/></g><rect x="545.9833333333333" y="81.31666666666666" width="11.616666666666667" height="11.616666666666667" fill="#dedede"/><rect x="545.98" y="81.32" width="5.81" height="5.81" fill="#dedede"/><g transform="translate(545.98,81.32) scale(0.2905) rotate(0)"><rect width="20" height="10" fill="#dedede"/></g><rect x="551.79" y="81.32" width="5.81" height="5.81" fill="#b9b9b9"/><g transform="translate(551.79,81.32) scale(0.2905) rotate(0)"><rect width="20" height="10" fill="#dedede"/></g><rect x="545.98" y="87.13" width="5.81" height="5.81" fill="#2a2a2a"/><g transform="translate(545.98,87.13) scale(0.2905) rotate(0)"><path d="M10 0H20V10L10 20H0V10L10 0Z" fill="#515151"/></g><rect x="551.79" y="87.13" width="5.81" height="5.81" fill="#dedede"/><g transform="translate(551.79,87.13) scale(0.2905) rotate(0)"><path d="M10 0H20V10L10 20H0V10L10 0Z" fill="#dedede"/></g><rect x="604.07" y="81.32" width="11.62" height="11.62" fill="#a69689"/><g transform="translate(604.07,81.32) scale(0.581) rotate(0)"><rect width="20" height="10" fill="#dedede"/></g><rect x="662.15" y="81.32" width="11.62" height="11.62" fill="#dedede"/><g transform="translate(662.15,81.32) scale(0.581) rotate(0)"><path d="M13 0H20V7L7 20H0V13L13 0Z" fill="#dedede"/></g><rect x="23.23" y="139.4" width="11.62" height="11.62" fill="#7a5c45"/><g transform="translate(23.23,139.4) scale(0.581) rotate(0)"><rect width="20" height="10" fill="#dedede"/></g><rect x="81.31666666666666" y="139.4" width="11.616666666666667" height="11.616666666666667" fill="#dedede"/><rect x="81.32" y="139.4" width="5.81" height="5.81" fill="#b0a398"/><g transform="translate(81.32,139.4) scale(0.2905) rotate(0)"><path d="M13 0H20V7L7 20H0V13L13 0Z" fill="#d8d6d5"/></g><rect x="87.13" y="139.4" width="5.81" height="5.81" fill="#afa197"/><g transform="translate(87.13,139.4) scale(0.2905) rotate(0)"><path d="M10 0H20V10L10 20H0V10L10 0Z" fill="#dedede"/></g><rect x="81.32" y="145.21" width="5.81" height="5.81" fill="#dedede"/><g transform="translate(81.32,145.21) scale(0.2905) rotate(0)"><path d="M13 0H20V7L7 20H0V13L13 0Z" fill="#dedede"/></g><rect x="87.13" y="145.21" width="5.81" height="5.81" fill="#6e4c32"/><g transform="translate(87.13,145.21) scale(0.2905) rotate(0)"><rect width="20" height="10" fill="#c1b8b1"/></g><rect x="139.4" y="139.4" width="11.62" height="11.62" fill="#9f8d7e"/><g transform="translate(139.4,139.4) scale(0.581) rotate(0)"><path d="M13 0H20V7L7 20H0V13L13 0Z" fill="#656565"/></g><rect x="197.48" y="139.4" width="11.62" height="11.62" fill="#dedede"/><g transform="translate(197.48,139.4) scale(0.581) rotate(0)"><path d="M13 0H20V7L7 20H0V13L13 0Z" fill="#9b8778"/></g><rect x="255.57" y="139.4" width="11.62" height="11.62" fill="#dedede"/><g transform="translate(255.57,139.4) scale(0.581) rotate(0)"><path d="M13 0H20V7L7 20H0V13L13 0Z" fill="#1f1f1f"/></g><rect x="313.65" y="139.4" width="11.62" height="11.62" fill="#aa9a8e"/><g transform="translate(313.65,139.4) scale(0.581) rotate(0)"><path d="M13 0H20V7L7 20H0V13L13 0Z" fill="#757575"/></g><rect x="371.73" y="139.4" width="11.62" height="11.62" fill="#ababab"/><g transform="translate(371.73,139.4) scale(0.581) rotate(0)"><path d="M13 0H20V7L7 20H0V13L13 0Z" fill="#dedede"/></g><rect x="429.82" y="139.4" width="11.62" height="11.62" fill="#171717"/><g transform="translate(429.82,139.4) scale(0.581) rotate(0)"><path d="M10 0H20V10L10 20H0V10L10 0Z" fill="#dedede"/></g><rect x="487.90000000000003" y="139.4" width="11.616666666666667" height="11.616666666666667" fill="#dedede"/><rect x="487.9" y="139.4" width="5.81" height="5.81" fill="#383838"/><g transform="translate(487.9,139.4) scale(0.2905) rotate(0)"><path d="M10 0H20V10L10 20H0V10L10 0Z" fill="#dedede"/></g><rect x="493.71" y="139.4" width="5.81" height="5.81" fill="#6b6b6b"/><g transform="translate(493.71,139.4) scale(0.2905) rotate(0)"><path d="M13 0H20V7L7 20H0V13L13 0Z" fill="#979797"/></g><rect x="487.9" y="145.21" width="5.81" height="5.81" fill="#76573f"/><g transform="translate(487.9,145.21) scale(0.2905) rotate(0)"><path d="M13 0H20V7L7 20H0V13L13 0Z" fill="#dedede"/></g><rect x="493.71" y="145.21" width="5.81" height="5.81" fill="#9f8c7e"/><g transform="translate(493.71,145.21) scale(0.2905) rotate(0)"><path d="M10 0H20V10L10 20H0V10L10 0Z" fill="#dedede"/></g><rect x="545.98" y="139.4" width="11.62" height="11.62" fill="#dedede"/><g transform="translate(545.98,139.4) scale(0.581) rotate(0)"><path d="M10 0H20V10L10 20H0V10L10 0Z" fill="#282828"/></g><rect x="604.0666666666667" y="139.4" width="11.616666666666667" height="11.616666666666667" fill="#dedede"/><rect x="604.07" y="139.4" width="5.81" height="5.81" fill="#575757"/><g transform="translate(604.07,139.4) scale(0.2905) rotate(0)"><path d="M13 0H20V7L7 20H0V13L13 0Z" fill="#dedede"/></g><rect x="609.88" y="139.4" width="5.81" height="5.81" fill="#a49386"/><g transform="translate(609.88,139.4) scale(0.2905) rotate(0)"><rect width="20" height="10" fill="#846955"/></g><rect x="604.07" y="145.21" width="5.81" height="5.81" fill="#8f7765"/><g transform="translate(604.07,145.21) scale(0.2905) rotate(0)"><path d="M13 0H20V7L7 20H0V13L13 0Z" fill="#212121"/></g><rect x="609.88" y="145.21" width="5.81" height="5.81" fill="#dedede"/><g transform="translate(609.88,145.21) scale(0.2905) rotate(0)"><path d="M10 0H20V10L10 20H0V10L10 0Z" fill="#c9c3be"/></g><rect x="662.15" y="139.4" width="11.62" height="11.62" fill="#d1cdca"/><g transform="translate(662.15,139.4) scale(0.581) rotate(0)"><rect width="20" height="10" fill="#dedede"/></g><rect x="23.233333333333334" y="197.48333333333335" width="11.616666666666667" height="11.616666666666667" fill="#dedede"/><rect x="23.23" y="197.48" width="5.81" height="5.81" fill="#9d897a"/><g transform="translate(23.23,197.48) scale(0.2905) rotate(0)"><rect width="20" height="10" fill="#d4d4d4"/></g><rect x="29.04" y="197.48" width="5.81" height="5.81" fill="#dedede"/><g transform="translate(29.04,197.48) scale(0.2905) rotate(0)"><rect width="20" height="10" fill="#717171"/></g><rect x="23.23" y="203.29" width="5.81" height="5.81" fill="#525252"/><g transform="translate(23.23,203.29) scale(0.2905) rotate(0)"><path d="M13 0H20V7L7 20H0V13L13 0Z" fill="#927b69"/></g><rect x="29.04" y="203.29" width="5.81" height="5.81" fill="#dedede"/><g transform="translate(29.04,203.29) scale(0.2905) rotate(0)"><rect width="20" height="10" fill="#c6bfb9"/></g><rect x="81.32" y="197.48" width="11.62" height="11.62" fill="#2f2f2f"/><g transform="translate(81.32,197.48) scale(0.581) rotate(0)"><path d="M13 0H20V7L7 20H0V13L13 0Z" fill="#999999"/></g><rect x="139.4" y="197.48" width="11.62" height="11.62" fill="#dedede"/><g transform="translate(139.4,197.48) scale(0.581) rotate(0)"><rect width="20" height="10" fill="#9b8777"/></g><rect x="197.48" y="197.48" width="11.62" height="11.62" fill="#737373"/><g transform="translate(197.48,197.48) scale(0.581) rotate(0)"><rect width="20" height="10" fill="#363636"/></g><rect x="255.57" y="197.48" width="11.62" height="11.62" fill="#dedede"/><g transform="translate(255.57,197.48) scale(0.581) rotate(0)"><path d="M10 0H20V10L10 20H0V10L10 0Z" fill="#dedede"/></g><rect x="313.65" y="197.48" width="11.62" height="11.62" fill="#b4a89e"/><g transform="translate(313.65,197.48) scale(0.581) rotate(0)"><rect width="20" height="10" fill="#dedede"/></g><rect x="371.73" y="197.48" width="11.62" height="11.62" fill="#bababa"/><g transform="translate(371.73,197.48) scale(0.581) rotate(0)"><path d="M10 0H20V10L10 20H0V10L10 0Z" fill="#dedede"/></g><rect x="429.8166666666667" y="197.48333333333335" width="11.616666666666667" height="11.616666666666667" fill="#dedede"/><rect x="429.82" y="197.48" width="5.81" height="5.81" fill="#dedede"/><g transform="translate(429.82,197.48) scale(0.2905) rotate(0)"><path d="M13 0H20V7L7 20H0V13L13 0Z" fill="#dedede"/></g><rect x="435.63" y="197.48" width="5.81" height="5.81" fill="#dedede"/><g transform="translate(435.63,197.48) scale(0.2905) rotate(0)"><rect width="20" height="10" fill="#4d4d4d"/></g><rect x="429.82" y="203.29" width="5.81" height="5.81" fill="#1d1d1d"/><g transform="translate(429.82,203.29) scale(0.2905) rotate(0)"><path d="M13 0H20V7L7 20H0V13L13 0Z" fill="#dedede"/></g><rect x="435.63" y="203.29" width="5.81" height="5.81" fill="#a39184"/><g transform="translate(435.63,203.29) scale(0.2905) rotate(0)"><rect width="20" height="10" fill="#dedede"/></g><rect x="487.9" y="197.48" width="11.62" height="11.62" fill="#dedede"/><g transform="translate(487.9,197.48) scale(0.581) rotate(0)"><path d="M10 0H20V10L10 20H0V10L10 0Z" fill="#ab9c90"/></g><rect x="545.98" y="197.48" width="11.62" height="11.62" fill="#c2b9b3"/><g transform="translate(545.98,197.48) scale(0.581) rotate(0)"><path d="M10 0H20V10L10 20H0V10L10 0Z" fill="#bfb5ae"/></g><rect x="604.07" y="197.48" width="11.62" height="11.62" fill="#80644e"/><g transform="translate(604.07,197.48) scale(0.581) rotate(0)"><path d="M13 0H20V7L7 20H0V13L13 0Z" fill="#5a5a5a"/></g><rect x="662.15" y="197.48" width="11.62" height="11.62" fill="#292929"/><g transform="translate(662.15,197.48) scale(0.581) rotate(0)"><path d="M13 0H20V7L7 20H0V13L13 0Z" fill="#5b5b5b"/></g><rect x="23.23" y="255.57" width="11.62" height="11.62" fill="#dedede"/><g transform="translate(23.23,255.57) scale(0.581) rotate(0)"><path d="M13 0H20V7L7 20H0V13L13 0Z" fill="#a59487"/></g><rect x="81.31666666666666" y="255.56666666666666" width="11.616666666666667" height="11.616666666666667" fill="#dedede"/><rect x="81.32" y="255.57" width="5.81" height="5.81" fill="#404040"/><g transform="translate(81.32,255.57) scale(0.2905) rotate(0)"><path d="M10 0H20V10L10 20H0V10L10 0Z" fill="#dedede"/></g><rect x="87.13" y="255.57" width="5.81" height="5.81" fill="#909090"/><g transform="translate(87.13,255.57) scale(0.2905) rotate(0)"><path d="M10 0H20V10L10 20H0V10L10 0Z" fill="#7b7b7b"/></g><rect x="81.32" y="261.38" width="5.81" height="5.81" fill="#dedede"/><g transform="translate(81.32,261.38) scale(0.2905) rotate(0)"><path d="M13 0H20V7L7 20H0V13L13 0Z" fill="#dedede"/></g><rect x="87.13" y="261.38" width="5.81" height="5.81" fill="#dedede"/><g transform="translate(87.13,261.38) scale(0.2905) rotate(0)"><path d="M10 0H20V10L10 20H0V10L10 0Z" fill="#968170"/></g><rect x="139.4" y="255.56666666666666" width="11.616666666666667" height="11.616666666666667" fill="#dedede"/><rect x="139.4" y="255.57" width="5.81" height="5.81" fill="#7c7c7c"/><g transform="translate(139.4,255.57) scale(0.2905) rotate(0)"><path d="M13 0H20V7L7 20H0V13L13 0Z" fill="#dedede"/></g><rect x="145.21" y="255.57" width="5.81" height="5.81" fill="#818181"/><g transform="translate(145.21,255.57) scale(0.2905) rotate(0)"><path d="M10 0H20V10L10 20H0V10L10 0Z" fill="#bbb1a9"/></g><rect x="139.4" y="261.38" width="5.81" height="5.81" fill="#c3c3c3"/><g transform="translate(139.4,261.38) scale(0.2905) rotate(0)"><path d="M13 0H20V7L7 20H0V13L13 0Z" fill="#74553c"/></g><rect x="145.21" y="261.38" width="5.81" height="5.81" fill="#dedede"/><g transform="translate(145.21,261.38) scale(0.2905) rotate(0)"><path d="M13 0H20V7L7 20H0V13L13 0Z" fill="#866c58"/></g><rect x="197.48" y="255.57" width="11.62" height="11.62" fill="#aeaeae"/><g transform="translate(197.48,255.57) scale(0.581) rotate(0)"><rect width="20" height="10" fill="#d3d0cd"/></g><rect x="255.57" y="255.57" width="11.62" height="11.62" fill="#b5a89f"/><g transform="translate(255.57,255.57) scale(0.581) rotate(0)"><path d="M10 0H20V10L10 20H0V10L10 0Z" fill="#c6bfb9"/></g><rect x="313.65" y="255.57" width="11.62" height="11.62" fill="#785942"/><g transform="translate(313.65,255.57) scale(0.581) rotate(0)"><path d="M10 0H20V10L10 20H0V10L10 0Z" fill="#b7aca3"/></g><rect x="371.73333333333335" y="255.56666666666666" width="11.616666666666667" height="11.616666666666667" fill="#dedede"/><rect x="371.73" y="255.57" width="5.81" height="5.81" fill="#dedede"/><g transform="translate(371.73,255.57) scale(0.2905) rotate(0)"><rect width="20" height="10" fill="#646464"/></g><rect x="377.54" y="255.57" width="5.81" height="5.81" fill="#9f8c7e"/><g transform="translate(377.54,255.57) scale(0.2905) rotate(0)"><rect width="20" height="10" fill="#737373"/></g><rect x="371.73" y="261.38" width="5.81" height="5.81" fill="#8f7765"/><g transform="translate(371.73,261.38) scale(0.2905) rotate(0)"><path d="M10 0H20V10L10 20H0V10L10 0Z" fill="#bdb3ac"/></g><rect x="377.54" y="261.38" width="5.81" height="5.81" fill="#bab0a8"/><g transform="translate(377.54,261.38) scale(0.2905) rotate(0)"><rect width="20" height="10" fill="#a29083"/></g><rect x="429.82" y="255.57" width="11.62" height="11.62" fill="#b8b8b8"/><g transform="translate(429.82,255.57) scale(0.581) rotate(0)"><rect width="20" height="10" fill="#80644e"/></g><rect x="487.90000000000003" y="255.56666666666666" width="11.616666666666667" height="11.616666666666667" fill="#dedede"/><rect x="487.9" y="255.57" width="5.81" height="5.81" fill="#dedede"/><g transform="translate(487.9,255.57) scale(0.2905) rotate(0)"><path d="M10 0H20V10L10 20H0V10L10 0Z" fill="#dedede"/></g><rect x="493.71" y="255.57" width="5.81" height="5.81" fill="#dddddc"/><g transform="translate(493.71,255.57) scale(0.2905) rotate(0)"><path d="M10 0H20V10L10 20H0V10L10 0Z" fill="#626262"/></g><rect x="487.9" y="261.38" width="5.81" height="5.81" fill="#dedede"/><g transform="translate(487.9,261.38) scale(0.2905) rotate(0)"><path d="M13 0H20V7L7 20H0V13L13 0Z" fill="#dedede"/></g><rect x="493.71" y="261.38" width="5.81" height="5.81" fill="#dedede"/><g transform="translate(493.71,261.38) scale(0.2905) rotate(0)"><path d="M13 0H20V7L7 20H0V13L13 0Z" fill="#161616"/></g><rect x="545.9833333333333" y="255.56666666666666" width="11.616666666666667" height="11.616666666666667" fill="#dedede"/><rect x="545.98" y="255.57" width="5.81" height="5.81" fill="#dedede"/><g transform="translate(545.98,255.57) scale(0.2905) rotate(0)"><path d="M10 0H20V10L10 20H0V10L10 0Z" fill="#6d4b32"/></g><rect x="551.79" y="255.57" width="5.81" height="5.81" fill="#947d6c"/><g transform="translate(551.79,255.57) scale(0.2905) rotate(0)"><rect width="20" height="10" fill="#777777"/></g><rect x="545.98" y="261.38" width="5.81" height="5.81" fill="#7b7b7b"/><g transform="translate(545.98,261.38) scale(0.2905) rotate(0)"><path d="M13 0H20V7L7 20H0V13L13 0Z" fill="#dedede"/></g><rect x="551.79" y="261.38" width="5.81" height="5.81" fill="#dedede"/><g transform="translate(551.79,261.38) scale(0.2905) rotate(0)"><rect width="20" height="10" fill="#d7d5d3"/></g><rect x="604.07" y="255.57" width="11.62" height="11.62" fill="#313131"/><g transform="translate(604.07,255.57) scale(0.581) rotate(0)"><path d="M10 0H20V10L10 20H0V10L10 0Z" fill="#7d604a"/></g><rect x="662.15" y="255.57" width="11.62" height="11.62" fill="#b2a49a"/><g transform="translate(662.15,255.57) scale(0.581) rotate(0)"><path d="M13 0H20V7L7 20H0V13L13 0Z" fill="#a8988c"/></g><rect x="23.23" y="313.65" width="11.62" height="11.62" fill="#dedede"/><g transform="translate(23.23,313.65) scale(0.581) rotate(0)"><rect width="20" height="10" fill="#575757"/></g><rect x="81.32" y="313.65" width="11.62" height="11.62" fill="#846954"/><g transform="translate(81.32,313.65) scale(0.581) rotate(0)"><path d="M10 0H20V10L10 20H0V10L10 0Z" fill="#dedede"/></g><rect x="139.4" y="313.65" width="11.62" height="11.62" fill="#d6d4d2"/><g transform="translate(139.4,313.65) scale(0.581) rotate(0)"><rect width="20" height="10" fill="#dedede"/></g><rect x="197.48" y="313.65" width="11.62" height="11.62" fill="#afa196"/><g transform="translate(197.48,313.65) scale(0.581) rotate(0)"><path d="M10 0H20V10L10 20H0V10L10 0Z" fill="#bbb1a9"/></g><rect x="255.56666666666666" y="313.65000000000003" width="11.616666666666667" height="11.616666666666667" fill="#dedede"/><rect x="255.57" y="313.65" width="5.81" height="5.81" fill="#bbbbbb"/><g transform="translate(255.57,313.65) scale(0.2905) rotate(0)"><path d="M13 0H20V7L7 20H0V13L13 0Z" fill="#a9a9a9"/></g><rect x="261.38" y="313.65" width="5.81" height="5.81" fill="#9a9a9a"/><g transform="translate(261.38,313.65) scale(0.2905) rotate(0)"><rect width="20" height="10" fill="#171717"/></g><rect x="255.57" y="319.46" width="5.81" height="5.81" fill="#6c6c6c"/><g transform="translate(255.57,319.46) scale(0.2905) rotate(0)"><path d="M10 0H20V10L10 20H0V10L10 0Z" fill="#b4a79d"/></g><rect x="261.38" y="319.46" width="5.81" height="5.81" fill="#dedede"/><g transform="translate(261.38,319.46) scale(0.2905) rotate(0)"><path d="M10 0H20V10L10 20H0V10L10 0Z" fill="#616161"/></g><rect x="313.65" y="313.65" width="11.62" height="11.62" fill="#d8d6d5"/><g transform="translate(313.65,313.65) scale(0.581) rotate(0)"><path d="M13 0H20V7L7 20H0V13L13 0Z" fill="#a49285"/></g><rect x="371.73333333333335" y="313.65000000000003" width="11.616666666666667" height="11.616666666666667" fill="#dedede"/><rect x="371.73" y="313.65" width="5.81" height="5.81" fill="#464646"/><g transform="translate(371.73,313.65) scale(0.2905) rotate(0)"><path d="M10 0H20V10L10 20H0V10L10 0Z" fill="#9c8879"/></g><rect x="377.54" y="313.65" width="5.81" height="5.81" fill="#181818"/><g transform="translate(377.54,313.65) scale(0.2905) rotate(0)"><path d="M10 0H20V10L10 20H0V10L10 0Z" fill="#dedede"/></g><rect x="371.73" y="319.46" width="5.81" height="5.81" fill="#9e8b7d"/><g transform="translate(371.73,319.46) scale(0.2905) rotate(0)"><path d="M10 0H20V10L10 20H0V10L10 0Z" fill="#dedede"/></g><rect x="377.54" y="319.46" width="5.81" height="5.81" fill="#dedede"/><g transform="translate(377.54,319.46) scale(0.2905) rotate(0)"><path d="M10 0H20V10L10 20H0V10L10 0Z" fill="#dedede"/></g><rect x="429.82" y="313.65" width="11.62" height="11.62" fill="#dedede"/><g transform="translate(429.82,313.65) scale(0.581) rotate(0)"><path d="M10 0H20V10L10 20H0V10L10 0Z" fill="#dedede"/></g><rect x="487.90000000000003" y="313.65000000000003" width="11.616666666666667" height="11.616666666666667" fill="#dedede"/><rect x="487.9" y="313.65" width="5.81" height="5.81" fill="#7d604a"/><g transform="translate(487.9,313.65) scale(0.2905) rotate(0)"><path d="M10 0H20V10L10 20H0V10L10 0Z" fill="#a79689"/></g><rect x="493.71" y="313.65" width="5.81" height="5.81" fill="#998474"/><g transform="translate(493.71,313.65) scale(0.2905) rotate(0)"><path d="M10 0H20V10L10 20H0V10L10 0Z" fill="#dedede"/></g><rect x="487.9" y="319.46" width="5.81" height="5.81" fill="#896f5b"/><g transform="translate(487.9,319.46) scale(0.2905) rotate(0)"><path d="M13 0H20V7L7 20H0V13L13 0Z" fill="#dedede"/></g><rect x="493.71" y="319.46" width="5.81" height="5.81" fill="#3f3f3f"/><g transform="translate(493.71,319.46) scale(0.2905) rotate(0)"><rect width="20" height="10" fill="#b2a59a"/></g><rect x="545.9833333333333" y="313.65000000000003" width="11.616666666666667" height="11.616666666666667" fill="#dedede"/><rect x="545.98" y="313.65" width="5.81" height="5.81" fill="#dedede"/><g transform="translate(545.98,313.65) scale(0.2905) rotate(0)"><path d="M13 0H20V7L7 20H0V13L13 0Z" fill="#c9c3be"/></g><rect x="551.79" y="313.65" width="5.81" height="5.81" fill="#161616"/><g transform="translate(551.79,313.65) scale(0.2905) rotate(0)"><rect width="20" height="10" fill="#b6aaa0"/></g><rect x="545.98" y="319.46" width="5.81" height="5.81" fill="#b9b9b9"/><g transform="translate(545.98,319.46) scale(0.2905) rotate(0)"><rect width="20" height="10" fill="#a5a5a5"/></g><rect x="551.79" y="319.46" width="5.81" height="5.81" fill="#dedede"/><g transform="translate(551.79,319.46) scale(0.2905) rotate(0)"><path d="M13 0H20V7L7 20H0V13L13 0Z" fill="#4c4c4c"/></g><rect x="604.0666666666667" y="313.65000000000003" width="11.616666666666667" height="11.616666666666667" fill="#dedede"/><rect x="604.07" y="313.65" width="5.81" height="5.81" fill="#dedede"/><g transform="translate(604.07,313.65) scale(0.2905) rotate(0)"><path d="M10 0H20V10L10 20H0V10L10 0Z" fill="#dedede"/></g><rect x="609.88" y="313.65" width="5.81" height="5.81" fill="#b6aaa1"/><g transform="translate(609.88,313.65) scale(0.2905) rotate(0)"><rect width="20" height="10" fill="#80644e"/></g><rect x="604.07" y="319.46" width="5.81" height="5.81" fill="#dedede"/><g transform="translate(604.07,319.46) scale(0.2905) rotate(0)"><path d="M13 0H20V7L7 20H0V13L13 0Z" fill="#2d2d2d"/></g><rect x="609.88" y="319.46" width="5.81" height="5.81" fill="#dedede"/><g transform="translate(609.88,319.46) scale(0.2905) rotate(0)"><rect width="20" height="10" fill="#dedede"/></g><rect x="662.15" y="313.65" width="11.62" height="11.62" fill="#dedede"/><g transform="translate(662.15,313.65) scale(0.581) rotate(0)"><rect width="20" height="10" fill="#dedede"/></g><rect x="23.233333333333334" y="371.73333333333335" width="11.616666666666667" height="11.616666666666667" fill="#dedede"/><rect x="23.23" y="371.73" width="5.81" height="5.81" fill="#3e3e3e"/><g transform="translate(23.23,371.73) scale(0.2905) rotate(0)"><path d="M13 0H20V7L7 20H0V13L13 0Z" fill="#c0b8b1"/></g><rect x="29.04" y="371.73" width="5.81" height="5.81" fill="#424242"/><g transform="translate(29.04,371.73) scale(0.2905) rotate(0)"><path d="M13 0H20V7L7 20H0V13L13 0Z" fill="#beb4ad"/></g><rect x="23.23" y="377.54" width="5.81" height="5.81" fill="#1e1e1e"/><g transform="translate(23.23,377.54) scale(0.2905) rotate(0)"><path d="M10 0H20V10L10 20H0V10L10 0Z" fill="#8b725f"/></g><rect x="29.04" y="377.54" width="5.81" height="5.81" fill="#947d6c"/><g transform="translate(29.04,377.54) scale(0.2905) rotate(0)"><path d="M10 0H20V10L10 20H0V10L10 0Z" fill="#cfcfcf"/></g><rect x="81.32" y="371.73" width="11.62" height="11.62" fill="#dedede"/><g transform="translate(81.32,371.73) scale(0.581) rotate(0)"><path d="M10 0H20V10L10 20H0V10L10 0Z" fill="#b2a59b"/></g><rect x="139.4" y="371.73" width="11.62" height="11.62" fill="#73533a"/><g transform="translate(139.4,371.73) scale(0.581) rotate(0)"><path d="M13 0H20V7L7 20H0V13L13 0Z" fill="#dedede"/></g><rect x="197.48" y="371.73" width="11.62" height="11.62" fill="#454545"/><g transform="translate(197.48,371.73) scale(0.581) rotate(0)"><path d="M10 0H20V10L10 20H0V10L10 0Z" fill="#dedede"/></g><rect x="255.57" y="371.73" width="11.62" height="11.62" fill="#dedede"/><g transform="translate(255.57,371.73) scale(0.581) rotate(0)"><rect width="20" height="10" fill="#7e7e7e"/></g><rect x="313.65" y="371.73" width="11.62" height="11.62" fill="#dedede"/><g transform="translate(313.65,371.73) scale(0.581) rotate(0)"><path d="M10 0H20V10L10 20H0V10L10 0Z" fill="#b8b8b8"/></g><rect x="371.73" y="371.73" width="11.62" height="11.62" fill="#c0b7b0"/><g transform="translate(371.73,371.73) scale(0.581) rotate(0)"><rect width="20" height="10" fill="#cccccc"/></g><rect x="429.82" y="371.73" width="11.62" height="11.62" fill="#9d897a"/><g transform="translate(429.82,371.73) scale(0.581) rotate(0)"><rect width="20" height="10" fill="#9e8b7c"/></g><rect x="487.9" y="371.73" width="11.62" height="11.62" fill="#dedede"/><g transform="translate(487.9,371.73) scale(0.581) rotate(0)"><rect width="20" height="10" fill="#303030"/></g><rect x="545.98" y="371.73" width="11.62" height="11.62" fill="#dedede"/><g transform="translate(545.98,371.73) scale(0.581) rotate(0)"><path d="M10 0H20V10L10 20H0V10L10 0Z" fill="#dedede"/></g><rect x="604.07" y="371.73" width="11.62" height="11.62" fill="#dedede"/><g transform="translate(604.07,371.73) scale(0.581) rotate(0)"><path d="M13 0H20V7L7 20H0V13L13 0Z" fill="#dedede"/></g><rect x="662.15" y="371.73" width="11.62" height="11.62" fill="#dcdcdc"/><g transform="translate(662.15,371.73) scale(0.581) rotate(0)"><rect width="20" height="10" fill="#a39184"/></g><rect x="23.23" y="429.82" width="11.62" height="11.62" fill="#7a5c45"/><g transform="translate(23.23,429.82) scale(0.581) rotate(0)"><path d="M13 0H20V7L7 20H0V13L13 0Z" fill="#5c5c5c"/></g><rect x="81.32" y="429.82" width="11.62" height="11.62" fill="#dedede"/><g transform="translate(81.32,429.82) scale(0.581) rotate(0)"><path d="M10 0H20V10L10 20H0V10L10 0Z" fill="#ad9e93"/></g><rect x="139.4" y="429.82" width="11.62" height="11.62" fill="#c2c2c2"/><g transform="translate(139.4,429.82) scale(0.581) rotate(0)"><path d="M10 0H20V10L10 20H0V10L10 0Z" fill="#6c6c6c"/></g><rect x="197.48" y="429.82" width="11.62" height="11.62" fill="#b1b1b1"/><g transform="translate(197.48,429.82) scale(0.581) rotate(0)"><path d="M13 0H20V7L7 20H0V13L13 0Z" fill="#dedede"/></g><rect x="255.57" y="429.82" width="11.62" height="11.62" fill="#4a4a4a"/><g transform="translate(255.57,429.82) scale(0.581) rotate(0)"><path d="M13 0H20V7L7 20H0V13L13 0Z" fill="#d5d5d5"/></g><rect x="313.65" y="429.82" width="11.62" height="11.62" fill="#7d604a"/><g transform="translate(313.65,429.82) scale(0.581) rotate(0)"><path d="M13 0H20V7L7 20H0V13L13 0Z" fill="#dedede"/></g><rect x="371.73333333333335" y="429.8166666666667" width="11.616666666666667" height="11.616666666666667" fill="#dedede"/><rect x="371.73" y="429.82" width="5.81" height="5.81" fill="#898989"/><g transform="translate(371.73,429.82) scale(0.2905) rotate(0)"><path d="M13 0H20V7L7 20H0V13L13 0Z" fill="#9d897a"/></g><rect x="377.54" y="429.82" width="5.81" height="5.81" fill="#515151"/><g transform="translate(377.54,429.82) scale(0.2905) rotate(0)"><path d="M10 0H20V10L10 20H0V10L10 0Z" fill="#704e35"/></g><rect x="371.73" y="435.63" width="5.81" height="5.81" fill="#dedede"/><g transform="translate(371.73,435.63) scale(0.2905) rotate(0)"><rect width="20" height="10" fill="#b8aca4"/></g><rect x="377.54" y="435.63" width="5.81" height="5.81" fill="#dedede"/><g transform="translate(377.54,435.63) scale(0.2905) rotate(0)"><rect width="20" height="10" fill="#c4c4c4"/></g><rect x="429.82" y="429.82" width="11.62" height="11.62" fill="#dedede"/><g transform="translate(429.82,429.82) scale(0.581) rotate(0)"><path d="M10 0H20V10L10 20H0V10L10 0Z" fill="#313131"/></g><rect x="487.9" y="429.82" width="11.62" height="11.62" fill="#afafaf"/><g transform="translate(487.9,429.82) scale(0.581) rotate(0)"><path d="M13 0H20V7L7 20H0V13L13 0Z" fill="#dedede"/></g><rect x="545.98" y="429.82" width="11.62" height="11.62" fill="#929292"/><g transform="translate(545.98,429.82) scale(0.581) rotate(0)"><path d="M10 0H20V10L10 20H0V10L10 0Z" fill="#dedede"/></g><rect x="604.07" y="429.82" width="11.62" height="11.62" fill="#dedede"/><g transform="translate(604.07,429.82) scale(0.581) rotate(0)"><rect width="20" height="10" fill="#c0c0c0"/></g><rect x="662.15" y="429.82" width="11.62" height="11.62" fill="#ae9f94"/><g transform="translate(662.15,429.82) scale(0.581) rotate(0)"><path d="M13 0H20V7L7 20H0V13L13 0Z" fill="#a18f81"/></g><rect x="23.23" y="487.9" width="11.62" height="11.62" fill="#141414"/><g transform="translate(23.23,487.9) scale(0.581) rotate(0)"><path d="M13 0H20V7L7 20H0V13L13 0Z" fill="#434343"/></g><rect x="81.32" y="487.9" width="11.62" height="11.62" fill="#dedede"/><g transform="translate(81.32,487.9) scale(0.581) rotate(0)"><path d="M13 0H20V7L7 20H0V13L13 0Z" fill="#757575"/></g><rect x="139.4" y="487.9" width="11.62" height="11.62" fill="#a0a0a0"/><g transform="translate(139.4,487.9) scale(0.581) rotate(0)"><path d="M10 0H20V10L10 20H0V10L10 0Z" fill="#dedede"/></g><rect x="197.48" y="487.9" width="11.62" height="11.62" fill="#dedede"/><g transform="translate(197.48,487.9) scale(0.581) rotate(0)"><path d="M13 0H20V7L7 20H0V13L13 0Z" fill="#80644e"/></g><rect x="255.56666666666666" y="487.90000000000003" width="11.616666666666667" height="11.616666666666667" fill="#dedede"/><rect x="255.57" y="487.9" width="5.81" height="5.81" fill="#dedede"/><g transform="translate(255.57,487.9) scale(0.2905) rotate(0)"><path d="M13 0H20V7L7 20H0V13L13 0Z" fill="#a28f82"/></g><rect x="261.38" y="487.9" width="5.81" height="5.81" fill="#dedede"/><g transform="translate(261.38,487.9) scale(0.2905) rotate(0)"><path d="M13 0H20V7L7 20H0V13L13 0Z" fill="#b2b2b2"/></g><rect x="255.57" y="493.71" width="5.81" height="5.81" fill="#dedede"/><g transform="translate(255.57,493.71) scale(0.2905) rotate(0)"><rect width="20" height="10" fill="#715138"/></g><rect x="261.38" y="493.71" width="5.81" height="5.81" fill="#747474"/><g transform="translate(261.38,493.71) scale(0.2905) rotate(0)"><path d="M10 0H20V10L10 20H0V10L10 0Z" fill="#bdb3ac"/></g><rect x="313.65" y="487.9" width="11.62" height="11.62" fill="#181818"/><g transform="translate(313.65,487.9) scale(0.581) rotate(0)"><path d="M10 0H20V10L10 20H0V10L10 0Z" fill="#a18f81"/></g><rect x="371.73" y="487.9" width="11.62" height="11.62" fill="#b2a59b"/><g transform="translate(371.73,487.9) scale(0.581) rotate(0)"><path d="M13 0H20V7L7 20H0V13L13 0Z" fill="#dedede"/></g><rect x="429.82" y="487.9" width="11.62" height="11.62" fill="#7a7a7a"/><g transform="translate(429.82,487.9) scale(0.581) rotate(0)"><path d="M13 0H20V7L7 20H0V13L13 0Z" fill="#a49285"/></g><rect x="487.9" y="487.9" width="11.62" height="11.62" fill="#dedede"/><g transform="translate(487.9,487.9) scale(0.581) rotate(0)"><rect width="20" height="10" fill="#4e4e4e"/></g><rect x="545.98" y="487.9" width="11.62" height="11.62" fill="#dedede"/><g transform="translate(545.98,487.9) scale(0.581) rotate(0)"><path d="M10 0H20V10L10 20H0V10L10 0Z" fill="#dedede"/></g><rect x="604.0666666666667" y="487.90000000000003" width="11.616666666666667" height="11.616666666666667" fill="#dedede"/><rect x="604.07" y="487.9" width="5.81" height="5.81" fill="#a8978b"/><g transform="translate(604.07,487.9) scale(0.2905) rotate(0)"><rect width="20" height="10" fill="#a8a8a8"/></g><rect x="609.88" y="487.9" width="5.81" height="5.81" fill="#9a9a9a"/><g transform="translate(609.88,487.9) scale(0.2905) rotate(0)"><rect width="20" height="10" fill="#161616"/></g><rect x="604.07" y="493.71" width="5.81" height="5.81" fill="#dedede"/><g transform="translate(604.07,493.71) scale(0.2905) rotate(0)"><rect width="20" height="10" fill="#b8ada4"/></g><rect x="609.88" y="493.71" width="5.81" height="5.81" fill="#a7a7a7"/><g transform="translate(609.88,493.71) scale(0.2905) rotate(0)"><path d="M13 0H20V7L7 20H0V13L13 0Z" fill="#252525"/></g><rect x="662.15" y="487.9" width="11.62" height="11.62" fill="#c2c2c2"/><g transform="translate(662.15,487.9) scale(0.581) rotate(0)"><path d="M10 0H20V10L10 20H0V10L10 0Z" fill="#dedede"/></g><rect x="23.23" y="545.98" width="11.62" height="11.62" fill="#cacaca"/><g transform="translate(23.23,545.98) scale(0.581) rotate(0)"><path d="M10 0H20V10L10 20H0V10L10 0Z" fill="#dbdad9"/></g><rect x="81.31666666666666" y="545.9833333333333" width="11.616666666666667" height="11.616666666666667" fill="#dedede"/><rect x="81.32" y="545.98" width="5.81" height="5.81" fill="#dedede"/><g transform="translate(81.32,545.98) scale(0.2905) rotate(0)"><rect width="20" height="10" fill="#c4bcb6"/></g><rect x="87.13" y="545.98" width="5.81" height="5.81" fill="#dedede"/><g transform="translate(87.13,545.98) scale(0.2905) rotate(0)"><rect width="20" height="10" fill="#dedede"/></g><rect x="81.32" y="551.79" width="5.81" height="5.81" fill="#676767"/><g transform="translate(81.32,551.79) scale(0.2905) rotate(0)"><path d="M10 0H20V10L10 20H0V10L10 0Z" fill="#6d6d6d"/></g><rect x="87.13" y="551.79" width="5.81" height="5.81" fill="#dedede"/><g transform="translate(87.13,551.79) scale(0.2905) rotate(0)"><path d="M13 0H20V7L7 20H0V13L13 0Z" fill="#afa197"/></g><rect x="139.4" y="545.98" width="11.62" height="11.62" fill="#dedede"/><g transform="translate(139.4,545.98) scale(0.581) rotate(0)"><path d="M13 0H20V7L7 20H0V13L13 0Z" fill="#dedede"/></g><rect x="197.48" y="545.98" width="11.62" height="11.62" fill="#a7978a"/><g transform="translate(197.48,545.98) scale(0.581) rotate(0)"><rect width="20" height="10" fill="#d6d4d2"/></g><rect x="255.57" y="545.98" width="11.62" height="11.62" fill="#dedede"/><g transform="translate(255.57,545.98) scale(0.581) rotate(0)"><rect width="20" height="10" fill="#a8a8a8"/></g><rect x="313.65" y="545.98" width="11.62" height="11.62" fill="#998474"/><g transform="translate(313.65,545.98) scale(0.581) rotate(0)"><path d="M10 0H20V10L10 20H0V10L10 0Z" fill="#dedede"/></g><rect x="371.73333333333335" y="545.9833333333333" width="11.616666666666667" height="11.616666666666667" fill="#dedede"/><rect x="371.73" y="545.98" width="5.81" height="5.81" fill="#89705c"/><g transform="translate(371.73,545.98) scale(0.2905) rotate(0)"><path d="M10 0H20V10L10 20H0V10L10 0Z" fill="#3c3c3c"/></g><rect x="377.54" y="545.98" width="5.81" height="5.81" fill="#818181"/><g transform="translate(377.54,545.98) scale(0.2905) rotate(0)"><path d="M13 0H20V7L7 20H0V13L13 0Z" fill="#b6aaa1"/></g><rect x="371.73" y="551.79" width="5.81" height="5.81" fill="#252525"/><g transform="translate(371.73,551.79) scale(0.2905) rotate(0)"><path d="M13 0H20V7L7 20H0V13L13 0Z" fill="#bdbdbd"/></g><rect x="377.54" y="551.79" width="5.81" height="5.81" fill="#858585"/><g transform="translate(377.54,551.79) scale(0.2905) rotate(0)"><path d="M10 0H20V10L10 20H0V10L10 0Z" fill="#1d1d1d"/></g><rect x="429.8166666666667" y="545.9833333333333" width="11.616666666666667" height="11.616666666666667" fill="#dedede"/><rect x="429.82" y="545.98" width="5.81" height="5.81" fill="#3f3f3f"/><g transform="translate(429.82,545.98) scale(0.2905) rotate(0)"><path d="M10 0H20V10L10 20H0V10L10 0Z" fill="#4b4b4b"/></g><rect x="435.63" y="545.98" width="5.81" height="5.81" fill="#dedede"/><g transform="translate(435.63,545.98) scale(0.2905) rotate(0)"><path d="M13 0H20V7L7 20H0V13L13 0Z" fill="#2c2c2c"/></g><rect x="429.82" y="551.79" width="5.81" height="5.81" fill="#8e7563"/><g transform="translate(429.82,551.79) scale(0.2905) rotate(0)"><path d="M10 0H20V10L10 20H0V10L10 0Z" fill="#343434"/></g><rect x="435.63" y="551.79" width="5.81" height="5.81" fill="#dedede"/><g transform="translate(435.63,551.79) scale(0.2905) rotate(0)"><path d="M13 0H20V7L7 20H0V13L13 0Z" fill="#dedede"/></g><rect x="487.9" y="545.98" width="11.62" height="11.62" fill="#dedede"/><g transform="translate(487.9,545.98) scale(0.581) rotate(0)"><rect width="20" height="10" fill="#222222"/></g><rect x="545.98" y="545.98" width="11.62" height="11.62" fill="#998475"/><g transform="translate(545.98,545.98) scale(0.581) rotate(0)"><path d="M13 0H20V7L7 20H0V13L13 0Z" fill="#ab9c90"/></g><rect x="604.0666666666667" y="545.9833333333333" width="11.616666666666667" height="11.616666666666667" fill="#dedede"/><rect x="604.07" y="545.98" width="5.81" height="5.81" fill="#dedede"/><g transform="translate(604.07,545.98) scale(0.2905) rotate(0)"><rect width="20" height="10" fill="#795b43"/></g><rect x="609.88" y="545.98" width="5.81" height="5.81" fill="#dedede"/><g transform="translate(609.88,545.98) scale(0.2905) rotate(0)"><path d="M10 0H20V10L10 20H0V10L10 0Z" fill="#919191"/></g><rect x="604.07" y="551.79" width="5.81" height="5.81" fill="#666666"/><g transform="translate(604.07,551.79) scale(0.2905) rotate(0)"><rect width="20" height="10" fill="#646464"/></g><rect x="609.88" y="551.79" width="5.81" height="5.81" fill="#a39183"/><g transform="translate(609.88,551.79) scale(0.2905) rotate(0)"><rect width="20" height="10" fill="#646464"/></g><rect x="662.1500000000001" y="545.9833333333333" width="11.616666666666667" height="11.616666666666667" fill="#dedede"/><rect x="662.15" y="545.98" width="5.81" height="5.81" fill="#d2cfcc"/><g transform="translate(662.15,545.98) scale(0.2905) rotate(0)"><path d="M13 0H20V7L7 20H0V13L13 0Z" fill="#242424"/></g><rect x="667.96" y="545.98" width="5.81" height="5.81" fill="#a7a7a7"/><g transform="translate(667.96,545.98) scale(0.2905) rotate(0)"><path d="M10 0H20V10L10 20H0V10L10 0Z" fill="#dedede"/></g><rect x="662.15" y="551.79" width="5.81" height="5.81" fill="#808080"/><g transform="translate(662.15,551.79) scale(0.2905) rotate(0)"><path d="M13 0H20V7L7 20H0V13L13 0Z" fill="#d0d0d0"/></g><rect x="667.96" y="551.79" width="5.81" height="5.81" fill="#dedede"/><g transform="translate(667.96,551.79) scale(0.2905) rotate(0)"><rect width="20" height="10" fill="#8d7462"/></g><rect x="23.23" y="604.07" width="11.62" height="11.62" fill="#715037"/><g transform="translate(23.23,604.07) scale(0.581) rotate(0)"><rect width="20" height="10" fill="#cec9c5"/></g><rect x="81.32" y="604.07" width="11.62" height="11.62" fill="#797979"/><g transform="translate(81.32,604.07) scale(0.581) rotate(0)"><rect width="20" height="10" fill="#c2c2c2"/></g><rect x="139.4" y="604.07" width="11.62" height="11.62" fill="#dedede"/><g transform="translate(139.4,604.07) scale(0.581) rotate(0)"><path d="M13 0H20V7L7 20H0V13L13 0Z" fill="#b9aea6"/></g><rect x="197.48" y="604.07" width="11.62" height="11.62" fill="#715138"/><g transform="translate(197.48,604.07) scale(0.581) rotate(0)"><rect width="20" height="10" fill="#525252"/></g><rect x="255.56666666666666" y="604.0666666666667" width="11.616666666666667" height="11.616666666666667" fill="#dedede"/><rect x="255.57" y="604.07" width="5.81" height="5.81" fill="#c9c9c9"/><g transform="translate(255.57,604.07) scale(0.2905) rotate(0)"><path d="M10 0H20V10L10 20H0V10L10 0Z" fill="#8b715e"/></g><rect x="261.38" y="604.07" width="5.81" height="5.81" fill="#a49386"/><g transform="translate(261.38,604.07) scale(0.2905) rotate(0)"><path d="M13 0H20V7L7 20H0V13L13 0Z" fill="#9b8677"/></g><rect x="255.57" y="609.88" width="5.81" height="5.81" fill="#a9998d"/><g transform="translate(255.57,609.88) scale(0.2905) rotate(0)"><rect width="20" height="10" fill="#535353"/></g><rect x="261.38" y="609.88" width="5.81" height="5.81" fill="#bbb0a8"/><g transform="translate(261.38,609.88) scale(0.2905) rotate(0)"><path d="M13 0H20V7L7 20H0V13L13 0Z" fill="#939393"/></g><rect x="313.65000000000003" y="604.0666666666667" width="11.616666666666667" height="11.616666666666667" fill="#dedede"/><rect x="313.65" y="604.07" width="5.81" height="5.81" fill="#dedede"/><g transform="translate(313.65,604.07) scale(0.2905) rotate(0)"><path d="M10 0H20V10L10 20H0V10L10 0Z" fill="#2f2f2f"/></g><rect x="319.46" y="604.07" width="5.81" height="5.81" fill="#303030"/><g transform="translate(319.46,604.07) scale(0.2905) rotate(0)"><path d="M13 0H20V7L7 20H0V13L13 0Z" fill="#686868"/></g><rect x="313.65" y="609.88" width="5.81" height="5.81" fill="#ac9c91"/><g transform="translate(313.65,609.88) scale(0.2905) rotate(0)"><rect width="20" height="10" fill="#303030"/></g><rect x="319.46" y="609.88" width="5.81" height="5.81" fill="#a5a5a5"/><g transform="translate(319.46,609.88) scale(0.2905) rotate(0)"><rect width="20" height="10" fill="#a6a6a6"/></g><rect x="371.73" y="604.07" width="11.62" height="11.62" fill="#785941"/><g transform="translate(371.73,604.07) scale(0.581) rotate(0)"><rect width="20" height="10" fill="#7c7c7c"/></g><rect x="429.8166666666667" y="604.0666666666667" width="11.616666666666667" height="11.616666666666667" fill="#dedede"/><rect x="429.82" y="604.07" width="5.81" height="5.81" fill="#3f3f3f"/><g transform="translate(429.82,604.07) scale(0.2905) rotate(0)"><rect width="20" height="10" fill="#999999"/></g><rect x="435.63" y="604.07" width="5.81" height="5.81" fill="#dedede"/><g transform="translate(435.63,604.07) scale(0.2905) rotate(0)"><path d="M10 0H20V10L10 20H0V10L10 0Z" fill="#ac9d92"/></g><rect x="429.82" y="609.88" width="5.81" height="5.81" fill="#a2a2a2"/><g transform="translate(429.82,609.88) scale(0.2905) rotate(0)"><path d="M10 0H20V10L10 20H0V10L10 0Z" fill="#6c6c6c"/></g><rect x="435.63" y="609.88" width="5.81" height="5.81" fill="#727272"/><g transform="translate(435.63,609.88) scale(0.2905) rotate(0)"><path d="M10 0H20V10L10 20H0V10L10 0Z" fill="#c1b9b2"/></g><rect x="487.9" y="604.07" width="11.62" height="11.62" fill="#dedede"/><g transform="translate(487.9,604.07) scale(0.581) rotate(0)"><path d="M13 0H20V7L7 20H0V13L13 0Z" fill="#dedede"/></g><rect x="545.98" y="604.07" width="11.62" height="11.62" fill="#c8c8c8"/><g transform="translate(545.98,604.07) scale(0.581) rotate(0)"><path d="M10 0H20V10L10 20H0V10L10 0Z" fill="#b4a79e"/></g><rect x="604.07" y="604.07" width="11.62" height="11.62" fill="#dedede"/><g transform="translate(604.07,604.07) scale(0.581) rotate(0)"><path d="M10 0H20V10L10 20H0V10L10 0Z" fill="#d6d4d2"/></g><rect x="662.15" y="604.07" width="11.62" height="11.62" fill="#bcb2aa"/><g transform="translate(662.15,604.07) scale(0.581) rotate(0)"><path d="M10 0H20V10L10 20H0V10L10 0Z" fill="#c1b9b2"/></g><rect x="23.23" y="662.15" width="11.62" height="11.62" fill="#968170"/><g transform="translate(23.23,662.15) scale(0.581) rotate(0)"><rect width="20" height="10" fill="#a59487"/></g><rect x="81.32" y="662.15" width="11.62" height="11.62" fill="#8c7461"/><g transform="translate(81.32,662.15) scale(0.581) rotate(0)"><rect width="20" height="10" fill="#b2a49a"/></g><rect x="139.4" y="662.15" width="11.62" height="11.62" fill="#dedede"/><g transform="translate(139.4,662.15) scale(0.581) rotate(0)"><path d="M10 0H20V10L10 20H0V10L10 0Z" fill="#c7c0ba"/></g><rect x="197.48" y="662.15" width="11.62" height="11.62" fill="#1f1f1f"/><g transform="translate(197.48,662.15) scale(0.581) rotate(0)"><rect width="20" height="10" fill="#d3d0ce"/></g><rect x="255.56666666666666" y="662.1500000000001" width="11.616666666666667" height="11.616666666666667" fill="#dedede"/><rect x="255.57" y="662.15" width="5.81" height="5.81" fill="#b9aea6"/><g transform="translate(255.57,662.15) scale(0.2905) rotate(0)"><path d="M13 0H20V7L7 20H0V13L13 0Z" fill="#988272"/></g><rect x="261.38" y="662.15" width="5.81" height="5.81" fill="#dedede"/><g transform="translate(261.38,662.15) scale(0.2905) rotate(0)"><path d="M10 0H20V10L10 20H0V10L10 0Z" fill="#dedede"/></g><rect x="255.57" y="667.96" width="5.81" height="5.81" fill="#b2b2b2"/><g transform="translate(255.57,667.96) scale(0.2905) rotate(0)"><path d="M10 0H20V10L10 20H0V10L10 0Z" fill="#ad9e93"/></g><rect x="261.38" y="667.96" width="5.81" height="5.81" fill="#888888"/><g transform="translate(261.38,667.96) scale(0.2905) rotate(0)"><rect width="20" height="10" fill="#dedede"/></g><rect x="313.65000000000003" y="662.1500000000001" width="11.616666666666667" height="11.616666666666667" fill="#dedede"/><rect x="313.65" y="662.15" width="5.81" height="5.81" fill="#dedede"/><g transform="translate(313.65,662.15) scale(0.2905) rotate(0)"><path d="M10 0H20V10L10 20H0V10L10 0Z" fill="#3b3b3b"/></g><rect x="319.46" y="662.15" width="5.81" height="5.81" fill="#dedede"/><g transform="translate(319.46,662.15) scale(0.2905) rotate(0)"><path d="M13 0H20V7L7 20H0V13L13 0Z" fill="#585858"/></g><rect x="313.65" y="667.96" width="5.81" height="5.81" fill="#cac4bf"/><g transform="translate(313.65,667.96) scale(0.2905) rotate(0)"><path d="M10 0H20V10L10 20H0V10L10 0Z" fill="#232323"/></g><rect x="319.46" y="667.96" width="5.81" height="5.81" fill="#dedede"/><g transform="translate(319.46,667.96) scale(0.2905) rotate(0)"><path d="M10 0H20V10L10 20H0V10L10 0Z" fill="#dedede"/></g><rect x="371.73333333333335" y="662.1500000000001" width="11.616666666666667" height="11.616666666666667" fill="#dedede"/><rect x="371.73" y="662.15" width="5.81" height="5.81" fill="#bfbfbf"/><g transform="translate(371.73,662.15) scale(0.2905) rotate(0)"><path d="M13 0H20V7L7 20H0V13L13 0Z" fill="#dedede"/></g><rect x="377.54" y="662.15" width="5.81" height="5.81" fill="#9e8b7c"/><g transform="translate(377.54,662.15) scale(0.2905) rotate(0)"><rect width="20" height="10" fill="#9d897a"/></g><rect x="371.73" y="667.96" width="5.81" height="5.81" fill="#dedede"/><g transform="translate(371.73,667.96) scale(0.2905) rotate(0)"><path d="M10 0H20V10L10 20H0V10L10 0Z" fill="#968170"/></g><rect x="377.54" y="667.96" width="5.81" height="5.81" fill="#b2a59b"/><g transform="translate(377.54,667.96) scale(0.2905) rotate(0)"><path d="M13 0H20V7L7 20H0V13L13 0Z" fill="#727272"/></g><rect x="429.82" y="662.15" width="11.62" height="11.62" fill="#dddddd"/><g transform="translate(429.82,662.15) scale(0.581) rotate(0)"><path d="M13 0H20V7L7 20H0V13L13 0Z" fill="#383838"/></g><rect x="487.9" y="662.15" width="11.62" height="11.62" fill="#b6aaa1"/><g transform="translate(487.9,662.15) scale(0.581) rotate(0)"><path d="M10 0H20V10L10 20H0V10L10 0Z" fill="#725239"/></g><rect x="545.98" y="662.15" width="11.62" height="11.62" fill="#dedede"/><g transform="translate(545.98,662.15) scale(0.581) rotate(0)"><path d="M13 0H20V7L7 20H0V13L13 0Z" fill="#acacac"/></g><rect x="604.07" y="662.15" width="11.62" height="11.62" fill="#baafa6"/><g transform="translate(604.07,662.15) scale(0.581) rotate(0)"><rect width="20" height="10" fill="#cfcbc7"/></g><rect x="662.15" y="662.15" width="11.62" height="11.62" fill="#c0c0c0"/><g transform="translate(662.15,662.15) scale(0.581) rotate(0)"><path d="M10 0H20V10L10 20H0V10L10 0Z" fill="#bfbfbf"/></g></g></svg>