<?xml version="1.0" standalone="no"?><svg xmlns:xlink="http://www.w3.org/1999/xlink" xmlns="http://www.w3.org/2000/svg" viewBox="0 0 100 100" preserveAspectRatio="xMaxYMax slice"><g transform="scale(0.14347202295552366)"><rect x="0" y="0" width="697" height="697" fill="#dedede"/><rect x="0" y="0" width="139.4" height="139.4" fill="#c0b7b0"/><path d="M 0 139.4 A 139.4 139.4 0 0 0 139.4 0 L 0 0" fill="#e1d8c7"/><rect x="139.4" y="0" width="139.4" height="139.4" fill="#dedede"/><rect x="139.4" y="0" width="69.7" height="69.7" fill="#fea704"/><path d="M 139.4 0 A 69.7 69.7 0 0 0 209.10000000000002 69.7 L 209.10000000000002 0" fill="#f8b22f"/><rect x="209.1" y="0" width="69.7" height="69.7" fill="#9c8879"/><path d="M 209.1 69.7 A 69.7 69.7 0 0 0 278.8 0 L 209.1 0" fill="#e8cd9a"/><rect x="139.4" y="69.7" width="69.7" height="69.7" fill="#bfb6af"/><path d="M 139.4 139.4 A 69.7 69.7 0 0 1  209.10000000000002 69.7 L 209.10000000000002 139.4" fill="#dfddd9"/><rect x="209.1" y="69.7" width="69.7" height="69.7" fill="#dededc"/><path d="M 209.1 69.7 A 69.7 69.7 0 0 1 278.8 139.4 L 209.1 139.4" fill="#f0bf65"/><rect x="278.8" y="0" width="139.4" height="139.4" fill="#e1d8c7"/><path d="M 278.8 0 A 139.4 139.4 0 0 1  418.20000000000005 139.4 L 278.8 0 A 139.4 139.4 0 0 0 418.20000000000005 139.4" fill="#9b8778"/><rect x="418.2" y="0" width="139.4" height="139.4" fill="#a9998c"/><polygon points="418.2,0 557.6,0 418.2,139.4" fill="#e2d7c2"/><rect x="557.6" y="0" width="139.4" height="139.4" fill="#d1cdca"/><path d="M 557.6 139.4 A 139.4 139.4 0 0 1  697 0 L 697 139.4" fill="#a49386"/><rect x="0" y="139.4" width="139.4" height="139.4" fill="#b6aaa1"/><path d="M 0 139.4 A 139.4 139.4 0 0 1 139.4 278.8 L 0 278.8" fill="#e0dacd"/><rect x="139.4" y="139.4" width="139.4" height="139.4" fill="#dedede"/><rect x="139.4" y="139.4" width="69.7" height="69.7" fill="#9e8a7c"/><polygon points="209.10000000000002,139.4 209.10000000000002,209.10000000000002 139.4,209.10000000000002" fill="#e5d1ac"/><rect x="209.1" y="139.4" width="69.7" height="69.7" fill="#f1be5f"/><polygon points="209.1,139.4 278.8,209.10000000000002 209.1,209.10000000000002" fill="#f3bb52"/><rect x="139.4" y="209.1" width="69.7" height="69.7" fill="#e6d0a7"/><polygon points="139.4,209.1 209.10000000000002,209.1 209.10000000000002,278.8" fill="#f8b12d"/><rect x="209.1" y="209.1" width="69.7" height="69.7" fill="#baafa7"/><polygon points="209.1,209.1 278.8,209.1 209.1,278.8" fill="#f5b743"/><rect x="278.8" y="139.4" width="139.4" height="139.4" fill="#dedede"/><rect x="278.8" y="139.4" width="69.7" height="69.7" fill="#e7cfa4"/><path d="M 278.8 139.4 A 69.7 69.7 0 0 1 348.5 209.10000000000002 L 278.8 209.10000000000002" fill="#e4d4b6"/><rect x="348.5" y="139.4" width="69.7" height="69.7" fill="#978272"/><path d="M 348.5 209.10000000000002 A 69.7 69.7 0 0 1  418.2 139.4 L 418.2 209.10000000000002" fill="#7f624c"/><rect x="278.8" y="209.1" width="69.7" height="69.7" fill="#b5a9a0"/><path d="M 278.8 278.8 A 69.7 69.7 0 0 0 348.5 209.1 L 278.8 209.1" fill="#ae9f94"/><rect x="348.5" y="209.1" width="69.7" height="69.7" fill="#d2cecb"/><path d="M 348.5 209.1 A 69.7 69.7 0 0 0 418.2 278.8 L 418.2 209.1" fill="#f9b028"/><rect x="418.2" y="139.4" width="139.4" height="139.4" fill="#faaf24"/><polygon points="557.6,139.4 557.6,278.8 418.2,278.8" fill="#c5bdb7"/><rect x="557.6" y="139.4" width="139.4" height="139.4" fill="#dbdad9"/><path d="M 557.6 278.8 A 139.4 139.4 0 0 0 697 139.4 L 557.6 139.4" fill="#e4d4b7"/><rect x="0" y="278.8" width="139.4" height="139.4" fill="#fbac19"/><path d="M 0 278.8 A 139.4 139.4 0 0 1 139.4 418.20000000000005 L 0 418.20000000000005" fill="#f4b849"/><rect x="139.4" y="278.8" width="139.4" height="139.4" fill="#dedede"/><rect x="139.4" y="278.8" width="69.7" height="69.7" fill="#a69589"/><path d="M 139.4 278.8 A 69.7 69.7 0 0 0 209.10000000000002 348.5 L 209.10000000000002 278.8" fill="#e0dbd0"/><rect x="209.1" y="278.8" width="69.7" height="69.7" fill="#f4b94c"/><path d="M 209.1 348.5 A 69.7 69.7 0 0 0 278.8 278.8 L 209.1 278.8" fill="#f1be60"/><rect x="139.4" y="348.5" width="69.7" height="69.7" fill="#e3d6be"/><path d="M 139.4 418.2 A 69.7 69.7 0 0 1  209.10000000000002 348.5 L 209.10000000000002 418.2" fill="#795b43"/><rect x="209.1" y="348.5" width="69.7" height="69.7" fill="#f8b332"/><path d="M 209.1 348.5 A 69.7 69.7 0 0 1 278.8 418.2 L 209.1 418.2" fill="#c3bbb5"/><rect x="278.8" y="278.8" width="139.4" height="139.4" fill="#dedede"/><rect x="278.8" y="278.8" width="69.7" height="69.7" fill="#8d7562"/><path d="M 278.8 278.8 A 69.7 69.7 0 0 1 348.5 348.5 L 278.8 348.5" fill="#eaca8f"/><rect x="348.5" y="278.8" width="69.7" height="69.7" fill="#eaca8f"/><path d="M 348.5 348.5 A 69.7 69.7 0 0 1  418.2 278.8 L 418.2 348.5" fill="#9e8b7c"/><rect x="278.8" y="348.5" width="69.7" height="69.7" fill="#8e7663"/><path d="M 278.8 418.2 A 69.7 69.7 0 0 0 348.5 348.5 L 278.8 348.5" fill="#ecc67e"/><rect x="348.5" y="348.5" width="69.7" height="69.7" fill="#e5d2af"/><path d="M 348.5 348.5 A 69.7 69.7 0 0 0 418.2 418.2 L 418.2 348.5" fill="#896f5b"/><rect x="418.20000000000005" y="278.8" width="139.4" height="139.4" fill="#dedede"/><rect x="418.2" y="278.8" width="69.7" height="69.7" fill="#8e7664"/><polygon points="487.9,278.8 487.9,348.5 418.2,348.5" fill="#dfdcd5"/><rect x="487.9" y="278.8" width="69.7" height="69.7" fill="#dcdcdb"/><polygon points="487.9,278.8 557.6,348.5 487.9,348.5" fill="#7e614b"/><rect x="418.2" y="348.5" width="69.7" height="69.7" fill="#f2bc56"/><polygon points="418.2,348.5 487.9,348.5 487.9,418.2" fill="#b0a398"/><rect x="487.9" y="348.5" width="69.7" height="69.7" fill="#ac9d92"/><polygon points="487.9,348.5 557.6,348.5 487.9,418.2" fill="#f1be60"/><rect x="557.6" y="278.8" width="139.4" height="139.4" fill="#dedede"/><rect x="557.6" y="278.8" width="69.7" height="69.7" fill="#775840"/><polygon points="627.3000000000001,278.8 627.3000000000001,348.5 557.6,348.5" fill="#96806f"/><rect x="627.3" y="278.8" width="69.7" height="69.7" fill="#a29082"/><polygon points="627.3,278.8 697,278.8 627.3,348.5" fill="#816550"/><rect x="557.6" y="348.5" width="69.7" height="69.7" fill="#846854"/><polygon points="557.6,348.5 627.3000000000001,348.5 627.3000000000001,418.2" fill="#ffa602"/><rect x="627.3" y="348.5" width="69.7" height="69.7" fill="#f0c065"/><polygon points="627.3,348.5 697,418.2 627.3,418.2" fill="#704e35"/><rect x="0" y="418.2" width="139.4" height="139.4" fill="#dfddda"/><path d="M 0 557.6 A 139.4 139.4 0 0 1  139.4 418.2 L 0 557.6 A 139.4 139.4 0 0 0 139.4 418.2" fill="#b8aca4"/><rect x="139.4" y="418.20000000000005" width="139.4" height="139.4" fill="#dedede"/><rect x="139.4" y="418.2" width="69.7" height="69.7" fill="#a29083"/><path d="M 139.4 487.9 A 69.7 69.7 0 0 1  209.10000000000002 418.2 L 209.10000000000002 487.9" fill="#ffa703"/><rect x="209.1" y="418.2" width="69.7" height="69.7" fill="#beb4ac"/><path d="M 209.1 418.2 A 69.7 69.7 0 0 1 278.8 487.9 L 209.1 487.9" fill="#785942"/><rect x="139.4" y="487.9" width="69.7" height="69.7" fill="#fcab13"/><path d="M 139.4 487.9 A 69.7 69.7 0 0 0 209.10000000000002 557.6 L 209.10000000000002 487.9" fill="#fbad1b"/><rect x="209.1" y="487.9" width="69.7" height="69.7" fill="#f1be5f"/><path d="M 209.1 557.6 A 69.7 69.7 0 0 0 278.8 487.9 L 209.1 487.9" fill="#fcaa12"/><rect x="278.8" y="418.20000000000005" width="139.4" height="139.4" fill="#dedede"/><rect x="278.8" y="418.2" width="69.7" height="69.7" fill="#eec373"/><path d="M 278.8 487.9 A 69.7 69.7 0 0 0 348.5 418.2 L 278.8 418.2" fill="#edc478"/><rect x="348.5" y="418.2" width="69.7" height="69.7" fill="#fcac17"/><path d="M 348.5 418.2 A 69.7 69.7 0 0 0 418.2 487.9 L 418.2 418.2" fill="#9c8879"/><rect x="278.8" y="487.9" width="69.7" height="69.7" fill="#faae21"/><path d="M 278.8 487.9 A 69.7 69.7 0 0 1 348.5 557.6 L 278.8 557.6" fill="#6f4e34"/><rect x="348.5" y="487.9" width="69.7" height="69.7" fill="#dfdbd4"/><path d="M 348.5 557.6 A 69.7 69.7 0 0 1  418.2 487.9 L 418.2 557.6" fill="#e3d6c0"/><rect x="418.2" y="418.2" width="139.4" height="139.4" fill="#e7ce9f"/><rect x="418.2" y="418.2" width="139.4" height="139.4" fill="#edc57c"/><rect x="557.6" y="418.2" width="139.4" height="139.4" fill="#fbac1a"/><path d="M 557.6 557.6 A 139.4 139.4 0 0 1  697 418.2 L 557.6 557.6 A 139.4 139.4 0 0 0 697 418.2" fill="#beb5ae"/><rect x="0" y="557.6" width="139.4" height="139.4" fill="#dedede"/><rect x="0" y="557.6" width="69.7" height="69.7" fill="#b9aea5"/><path d="M 0 627.3000000000001 A 69.7 69.7 0 0 0 69.7 557.6 L 0 557.6" fill="#785942"/><rect x="69.7" y="557.6" width="69.7" height="69.7" fill="#e5d2ad"/><path d="M 69.7 557.6 A 69.7 69.7 0 0 0 139.4 627.3000000000001 L 139.4 557.6" fill="#795a43"/><rect x="0" y="627.3" width="69.7" height="69.7" fill="#b6aaa1"/><path d="M 0 627.3 A 69.7 69.7 0 0 1 69.7 697 L 0 697" fill="#6f4d34"/><rect x="69.7" y="627.3" width="69.7" height="69.7" fill="#efc069"/><path d="M 69.7 697 A 69.7 69.7 0 0 1  139.4 627.3 L 139.4 697" fill="#edc57c"/><rect x="139.4" y="557.6" width="139.4" height="139.4" fill="#dedede"/><rect x="139.4" y="557.6" width="69.7" height="69.7" fill="#9f8d7e"/><polygon points="209.10000000000002,557.6 209.10000000000002,627.3000000000001 139.4,627.3000000000001" fill="#8f7765"/><rect x="209.1" y="557.6" width="69.7" height="69.7" fill="#f3ba4e"/><polygon points="209.1,557.6 278.8,557.6 209.1,627.3000000000001" fill="#cbc6c1"/><rect x="139.4" y="627.3" width="69.7" height="69.7" fill="#dad9d9"/><polygon points="139.4,627.3 209.10000000000002,627.3 209.10000000000002,697" fill="#9c8879"/><rect x="209.1" y="627.3" width="69.7" height="69.7" fill="#d8d6d5"/><polygon points="209.1,627.3 278.8,697 209.1,697" fill="#6e4d33"/><rect x="278.8" y="557.6" width="139.4" height="139.4" fill="#725239"/><rect x="278.8" y="557.6" width="139.4" height="139.4" fill="#b3a69c"/><rect x="418.20000000000005" y="557.6" width="139.4" height="139.4" fill="#dedede"/><rect x="418.2" y="557.6" width="69.7" height="69.7" fill="#e9cb91"/><path d="M 418.2 557.6 A 69.7 69.7 0 0 1 487.9 627.3000000000001 L 418.2 627.3000000000001" fill="#876c58"/><rect x="487.9" y="557.6" width="69.7" height="69.7" fill="#c5beb8"/><path d="M 487.9 627.3000000000001 A 69.7 69.7 0 0 1  557.6 557.6 L 557.6 627.3000000000001" fill="#826752"/><rect x="418.2" y="627.3" width="69.7" height="69.7" fill="#dddddd"/><path d="M 418.2 697 A 69.7 69.7 0 0 0 487.9 627.3 L 418.2 627.3" fill="#dfdcd8"/><rect x="487.9" y="627.3" width="69.7" height="69.7" fill="#b6aaa1"/><path d="M 487.9 627.3 A 69.7 69.7 0 0 0 557.6 697 L 557.6 627.3" fill="#725138"/><rect x="557.6" y="557.6" width="139.4" height="139.4" fill="#dedede"/><rect x="557.6" y="557.6" width="69.7" height="69.7" fill="#988373"/><polygon points="627.3000000000001,557.6 627.3000000000001,627.3000000000001 557.6,627.3000000000001" fill="#a8988c"/><rect x="627.3" y="557.6" width="69.7" height="69.7" fill="#9e8a7c"/><polygon points="627.3,557.6 697,627.3000000000001 627.3,627.3000000000001" fill="#9c897a"/><rect x="557.6" y="627.3" width="69.7" height="69.7" fill="#826752"/><polygon points="557.6,627.3 627.3000000000001,627.3 557.6,697" fill="#ac9d91"/><rect x="627.3" y="627.3" width="69.7" height="69.7" fill="#aa9a8e"/><polygon points="627.3,627.3 697,627.3 697,697" fill="#bcb1a9"/></g></svg>