<svg width="183" height="72" viewBox="0 0 183 72" fill="none" xmlns="http://www.w3.org/2000/svg">
<path d="M176.5 1H6.5C3.73858 1 1.5 3.23858 1.5 6V66C1.5 68.7614 3.73858 71 6.5 71H176.5C179.261 71 181.5 68.7614 181.5 66V6C181.5 3.23858 179.261 1 176.5 1Z" fill="#6D4B31"/>
<path d="M181 70L16.4728 69.0625H2L19.5 55H163.5L181 70Z" fill="#5C3F29"/>
<path d="M163.5 19V55L181 70V2L163.5 19Z" fill="#62432C"/>
<path d="M176.5 1H6.5C3.73858 1 1.5 3.23858 1.5 6V65.0481C1.5 67.7989 3.72204 70.0331 6.47281 70.048L176.473 70.9727C179.245 70.9877 181.5 68.7448 181.5 65.9727V6C181.5 3.23858 179.261 1 176.5 1Z" stroke="#C2BBB6" stroke-width="2" stroke-miterlimit="16" stroke-linejoin="round"/>
<path d="M163.5 19H19.5V55H163.5V19Z" fill="#6D4B31"/>
<path d="M19.5 28V19H163.5V28M19.5 46V55H163.5V46" stroke="#C2BBB6" stroke-width="2" stroke-linecap="round" stroke-linejoin="round"/>
<path d="M98.5 30.5C95.5 30.5 94 30 94 27H84.5V45H98.5V30.5Z" stroke="#C2BBB6" stroke-width="1.5" stroke-linecap="round" stroke-linejoin="round"/>
<path d="M98.5 39H84.5" stroke="#C2BBB6" stroke-width="1.5" stroke-linecap="round" stroke-linejoin="round"/>
<path d="M84.5 33H98.5" stroke="#C2BBB6" stroke-width="1.5" stroke-linecap="round" stroke-linejoin="round"/>
<path d="M91.5 45V27" stroke="#C2BBB6" stroke-width="1.5" stroke-linecap="round" stroke-linejoin="round"/>
</svg>
