<svg width="1136" height="214" viewBox="0 0 1136 214" fill="none" xmlns="http://www.w3.org/2000/svg">
<path d="M103.978 28.0823C146.451 16.9583 189.431 5.70161 212.5 5.70161C258.1 5.70161 344.133 37.4175 386.667 57.71C429.2 78.0025 472.7 98.2951 515.233 103.368C558.107 108.368 600.042 98.584 642.889 88.5869L644.767 88.1488C687.3 78.0026 730.8 67.8563 773.333 62.7832C815.867 57.71 859.367 57.71 901.9 72.9294C912.925 76.7868 923.888 81.6219 934.821 86.4434C967.022 100.645 998.959 114.73 1031.43 103.368C1073.97 88.1488 1114.73 30.4388 1136 0V214H0V49.6855C21.4937 49.6855 62.4942 38.9472 103.978 28.0823Z" fill="#6D4B31"/>
</svg>
