<svg width="1440" height="1024" viewBox="0 0 1440 1024" fill="none" xmlns="http://www.w3.org/2000/svg">
<g clip-path="url(#clip0)">
<path fill-rule="evenodd" clip-rule="evenodd" d="M1440 687.467L1380 680.659C1320 673.851 1200 660.234 1080 702.057C960 743.88 840 842.117 720 883.94C600 925.764 480 912.147 360 918.955C240 925.764 120 953.97 60 967.587L0 982.177V1024H60C120 1024 240 1024 360 1024C480 1024 600 1024 720 1024C840 1024 960 1024 1080 1024C1200 1024 1320 1024 1380 1024H1440V687.467Z" fill="#C69600"/>
<path fill-rule="evenodd" clip-rule="evenodd" d="M1440 209.778L1380 216.576C1320 223.375 1200 237.942 1080 272.905C960 307.868 840 363.226 720 356.428C600 349.63 480 279.704 360 223.375C240 168.016 120 126.255 59.9999 104.889L-8.58307e-05 83.5226V0L59.9999 0C120 0 240 0 360 0C480 0 600 0 720 0C840 0 960 0 1080 0C1200 0 1320 0 1380 0L1440 0V209.778Z" fill="#4E4637"/>
</g>
<defs>
<clipPath id="clip0">
<rect width="1440" height="1024" fill="white"/>
</clipPath>
</defs>
</svg>
