<svg width="729" height="572" viewBox="0 0 729 572" fill="none" xmlns="http://www.w3.org/2000/svg">
<path d="M691.575 537.493L723.12 493.125L691.511 542.353L691.442 547.436C689.224 547.396 687.03 547.301 684.858 547.154C684.86 546 688.139 482.518 688.038 481.368C688.192 481.326 688.338 475.364 688.401 475.103L656.402 425.953L688.482 470.483L688.566 471.79L690.99 422.468L663.569 371.66L691.297 413.8C691.314 413.129 693.651 311.832 693.67 311.207C693.675 311.539 693.477 391.836 693.478 392.175L720.51 360.124L693.383 399.119L692.804 443.278L718.017 400.822C686.462 462.79 693.526 441.065 692.402 474.325L729 415.223L692.286 482.891L691.575 537.493Z" fill="#D0CDE1"/>
<path d="M362.14 572C562.145 572 724.281 564.425 724.281 555.082C724.281 545.738 562.145 538.163 362.14 538.163C162.136 538.163 0 545.738 0 555.082C0 564.425 162.136 572 362.14 572Z" fill="#D0CDE1"/>
<path d="M412.67 6.14036V263.163C412.67 266.886 411.191 270.456 408.559 273.088C405.927 275.72 402.357 277.199 398.634 277.199C394.912 277.199 391.342 275.72 388.71 273.088C386.077 270.456 384.599 266.886 384.599 263.163V6.14036C384.599 -1.61421 390.88 4.38594 398.634 4.38594C402.512 4.38594 402.231 0.0963716 404.775 2.63152C407.31 5.1754 412.67 2.26306 412.67 6.14036Z" fill="#C69600"/>
<path opacity="0.1" d="M412.67 12.7195H384.599V23.246H412.67V12.7195Z" fill="black"/>
<path opacity="0.1" d="M412.67 46.0535H384.599V56.58H412.67V46.0535Z" fill="black"/>
<path opacity="0.1" d="M412.67 79.3877H384.599V89.9142H412.67V79.3877Z" fill="black"/>
<path opacity="0.1" d="M412.67 112.722H384.599V123.248H412.67V112.722Z" fill="black"/>
<path opacity="0.1" d="M412.67 146.056H384.599V156.582H412.67V146.056Z" fill="black"/>
<path opacity="0.1" d="M412.67 179.39H384.599V189.916H412.67V179.39Z" fill="black"/>
<path opacity="0.1" d="M412.67 212.724H384.599V223.25H412.67V212.724Z" fill="black"/>
<path opacity="0.1" d="M412.67 246.058H384.599V256.584H412.67V246.058Z" fill="black"/>
<path d="M398.634 8.77211C406.386 8.77211 412.67 6.80841 412.67 4.38606C412.67 1.9637 406.386 0 398.634 0C390.883 0 384.599 1.9637 384.599 4.38606C384.599 6.80841 390.883 8.77211 398.634 8.77211Z" fill="#C69600"/>
<path opacity="0.1" d="M398.634 8.77211C406.386 8.77211 412.67 6.80841 412.67 4.38606C412.67 1.9637 406.386 0 398.634 0C390.883 0 384.599 1.9637 384.599 4.38606C384.599 6.80841 390.883 8.77211 398.634 8.77211Z" fill="black"/>
<path d="M544.2 60.7023L381.56 259.725C380.393 261.153 378.957 262.337 377.334 263.209C375.71 264.082 373.93 264.626 372.096 264.811C370.262 264.996 368.409 264.817 366.644 264.286C364.879 263.755 363.235 262.881 361.808 261.714C360.38 260.548 359.197 259.112 358.324 257.488C357.452 255.864 356.908 254.084 356.724 252.25C356.54 250.415 356.718 248.563 357.25 246.798C357.782 245.033 358.656 243.39 359.823 241.963L522.463 42.9399C527.37 36.9352 528.437 45.5557 534.442 50.4626C537.444 52.916 539.941 49.4168 540.307 52.9896C540.66 56.5636 546.653 57.6999 544.2 60.7023Z" fill="#C69600"/>
<path opacity="0.1" d="M518.3 48.0344L511.639 56.1855L533.376 73.9479L540.037 65.7968L518.3 48.0344Z" fill="black"/>
<path opacity="0.1" d="M497.207 73.8462L490.546 81.9973L512.283 99.7597L518.944 91.6086L497.207 73.8462Z" fill="black"/>
<path opacity="0.1" d="M476.114 99.658L469.453 107.809L491.189 125.571L497.85 117.42L476.114 99.658Z" fill="black"/>
<path opacity="0.1" d="M455.02 125.47L448.359 133.621L470.096 151.383L476.757 143.232L455.02 125.47Z" fill="black"/>
<path opacity="0.1" d="M433.927 151.282L427.266 159.433L449.003 177.195L455.664 169.044L433.927 151.282Z" fill="black"/>
<path opacity="0.1" d="M412.834 177.094L406.173 185.245L427.909 203.007L434.57 194.856L412.834 177.094Z" fill="black"/>
<path opacity="0.1" d="M391.74 202.904L385.079 211.055L406.816 228.817L413.477 220.666L391.74 202.904Z" fill="black"/>
<path opacity="0.1" d="M370.647 228.717L363.986 236.868L385.723 254.631L392.384 246.479L370.647 228.717Z" fill="black"/>
<path d="M545.31 59.3439C546.843 57.4682 543.22 51.9714 537.217 47.0664C531.215 42.1615 525.106 39.7058 523.574 41.5815C522.041 43.4572 525.664 48.954 531.666 53.859C537.669 58.7639 543.777 61.2196 545.31 59.3439Z" fill="#C69600"/>
<path opacity="0.1" d="M545.31 59.3439C546.843 57.4682 543.22 51.9714 537.217 47.0664C531.215 42.1615 525.106 39.7058 523.574 41.5815C522.041 43.4572 525.664 48.954 531.666 53.859C537.669 58.7639 543.777 61.2196 545.31 59.3439Z" fill="black"/>
<path d="M542.866 299.129H505.302L505.577 292.103L507.191 250.593L507.998 229.97H246.435L246.847 240.523L247.917 268.041L249.952 320.261L251.312 355.025L253.067 399.991L254.558 438.395L254.988 449.439L254.996 449.571L255.207 455.071L255.751 468.852L255.804 470.387L256.172 479.738L256.233 481.422L256.769 495.01L257.242 507.256L257.409 511.484L257.488 513.405L257.558 515.265C257.549 521.577 258.777 527.829 261.172 533.669C261.801 535.215 262.512 536.726 263.304 538.195C269.086 548.988 278.724 557.204 290.296 561.205C291.824 561.74 293.379 562.194 294.954 562.564C298.63 563.438 302.396 563.877 306.174 563.871H448.25C455.397 563.882 462.457 562.312 468.927 559.275C476.128 555.869 482.391 550.759 487.173 544.389C489.205 541.687 490.945 538.78 492.366 535.713C492.48 535.467 492.594 535.222 492.691 534.976C495.11 529.557 496.502 523.736 496.796 517.809C496.84 516.967 496.867 516.116 496.867 515.265L497.323 503.554L497.884 489.177L497.937 487.747L498.519 472.817H542.866C558.584 472.799 573.653 466.548 584.768 455.433C595.882 444.319 602.134 429.25 602.152 413.532V358.414C602.134 342.696 595.882 327.627 584.768 316.513C573.653 305.398 558.584 299.147 542.866 299.129V299.129ZM567.062 413.532C567.055 419.947 564.503 426.097 559.967 430.633C555.431 435.17 549.281 437.721 542.866 437.728H499.895L499.902 437.571L500.305 427.202L500.612 419.289L502.349 374.78L503.93 334.218H542.866C549.281 334.225 555.431 336.776 559.967 341.313C564.503 345.849 567.055 351.999 567.062 358.414L567.062 413.532Z" fill="#4E4637"/>
<path d="M309.361 69.1051C325.037 69.1051 337.745 56.3972 337.745 40.7212C337.745 25.0453 325.037 12.3374 309.361 12.3374C293.685 12.3374 280.977 25.0453 280.977 40.7212C280.977 56.3972 293.685 69.1051 309.361 69.1051Z" fill="#D0CDE1"/>
<path d="M327.185 136.382C348.714 136.382 366.166 118.93 366.166 97.4018C366.166 75.8735 348.714 58.4214 327.185 58.4214C305.656 58.4214 288.204 75.8735 288.204 97.4018C288.204 118.93 305.656 136.382 327.185 136.382Z" fill="#D0CDE1"/>
<path d="M338.66 53.7248L293.861 67.8119C293.53 67.916 293.254 68.1473 293.093 68.4549C292.933 68.7625 292.901 69.1213 293.005 69.4523L293.81 72.0107C293.861 72.1746 293.944 72.3267 294.055 72.4584C294.165 72.5901 294.3 72.6987 294.453 72.7782C294.605 72.8576 294.771 72.9063 294.943 72.9214C295.114 72.9365 295.286 72.9177 295.45 72.8662L303.064 70.472L304.088 70.9763L308.064 107.707L314.365 112.145L310.073 73.9238L338.954 88.1471L345.112 85.0206L310.794 68.0413L340.249 58.7791C340.413 58.7276 340.565 58.6443 340.697 58.534C340.828 58.4236 340.937 58.2884 341.017 58.1361C341.096 57.9838 341.145 57.8173 341.16 57.6462C341.175 57.4751 341.156 57.3026 341.105 57.1388L340.3 54.5803C340.248 54.4165 340.165 54.2643 340.055 54.1326C339.945 54.0009 339.809 53.8923 339.657 53.8128C339.505 53.7334 339.338 53.6847 339.167 53.6696C338.996 53.6545 338.824 53.6733 338.66 53.7248V53.7248Z" fill="#C69600"/>
<path d="M290.474 31.9817C290.474 31.9817 300.251 22.5338 299.599 20.4623C298.948 18.3908 292.436 13.6094 284.15 16.215C284.15 16.215 280.906 13.1377 279.332 16.8195C277.758 20.5012 282.139 21.4002 282.139 21.4002C282.139 21.4002 279.926 30.2906 287.988 32.7634L290.474 31.9817Z" fill="#C69600"/>
<path d="M297.549 40.7553C298.803 40.7553 299.82 39.7386 299.82 38.4846C299.82 37.2305 298.803 36.2139 297.549 36.2139C296.295 36.2139 295.278 37.2305 295.278 38.4846C295.278 39.7386 296.295 40.7553 297.549 40.7553Z" fill="#4E4637"/>
<path d="M317.767 34.3979C319.021 34.3979 320.038 33.3812 320.038 32.1271C320.038 30.8731 319.021 29.8564 317.767 29.8564C316.513 29.8564 315.496 30.8731 315.496 32.1271C315.496 33.3812 316.513 34.3979 317.767 34.3979Z" fill="#4E4637"/>
<path d="M311.12 39.3748L307.148 40.6235L311.008 52.8983L314.979 51.6495L311.12 39.3748Z" fill="#C69600"/>
<path d="M323.706 86.0875C324.96 86.0875 325.977 85.0709 325.977 83.8168C325.977 82.5628 324.96 81.5461 323.706 81.5461C322.452 81.5461 321.436 82.5628 321.436 83.8168C321.436 85.0709 322.452 86.0875 323.706 86.0875Z" fill="#4E4637"/>
<path d="M326.204 94.0302C327.458 94.0302 328.475 93.0136 328.475 91.7595C328.475 90.5054 327.458 89.4888 326.204 89.4888C324.95 89.4888 323.933 90.5054 323.933 91.7595C323.933 93.0136 324.95 94.0302 326.204 94.0302Z" fill="#4E4637"/>
<path d="M328.702 101.973C329.956 101.973 330.972 100.956 330.972 99.7019C330.972 98.4478 329.956 97.4312 328.702 97.4312C327.448 97.4312 326.431 98.4478 326.431 99.7019C326.431 100.956 327.448 101.973 328.702 101.973Z" fill="#4E4637"/>
<path d="M314.412 56.784C310.796 57.8739 306.965 58.0405 303.268 57.2686L303.41 56.5251C306.98 57.3148 310.695 57.1532 314.183 56.0564C317.671 54.9595 320.81 52.966 323.286 50.2751L323.828 50.8036C321.238 53.5523 318.001 55.6083 314.412 56.784V56.784Z" fill="#4E4637"/>
<path d="M325.587 38.7015C326.632 38.7015 327.479 37.8543 327.479 36.8092C327.479 35.7642 326.632 34.917 325.587 34.917C324.542 34.917 323.695 35.7642 323.695 36.8092C323.695 37.8543 324.542 38.7015 325.587 38.7015Z" fill="#C69600"/>
<path d="M293.816 48.6917C294.861 48.6917 295.708 47.8445 295.708 46.7995C295.708 45.7544 294.861 44.9072 293.816 44.9072C292.771 44.9072 291.924 45.7544 291.924 46.7995C291.924 47.8445 292.771 48.6917 293.816 48.6917Z" fill="#C69600"/>
<path d="M413.497 338.289C415.958 338.289 417.953 336.294 417.953 333.833C417.953 331.373 415.958 329.378 413.497 329.378C411.037 329.378 409.042 331.373 409.042 333.833C409.042 336.294 411.037 338.289 413.497 338.289Z" fill="#D0CDE1"/>
<path d="M427.533 411.974C429.993 411.974 431.988 409.98 431.988 407.519C431.988 405.058 429.993 403.064 427.533 403.064C425.072 403.064 423.077 405.058 423.077 407.519C423.077 409.98 425.072 411.974 427.533 411.974Z" fill="#D0CDE1"/>
<path d="M339.81 430.396C342.271 430.396 344.265 428.401 344.265 425.941C344.265 423.48 342.271 421.485 339.81 421.485C337.349 421.485 335.354 423.48 335.354 425.941C335.354 428.401 337.349 430.396 339.81 430.396Z" fill="#D0CDE1"/>
<path d="M384.549 514.608C387.009 514.608 389.004 512.613 389.004 510.153C389.004 507.692 387.009 505.698 384.549 505.698C382.088 505.698 380.093 507.692 380.093 510.153C380.093 512.613 382.088 514.608 384.549 514.608Z" fill="#D0CDE1"/>
<path d="M284.544 447.063C287.005 447.063 289 445.068 289 442.608C289 440.147 287.005 438.152 284.544 438.152C282.084 438.152 280.089 440.147 280.089 442.608C280.089 445.068 282.084 447.063 284.544 447.063Z" fill="#D0CDE1"/>
<path d="M281.035 361.096C283.496 361.096 285.491 359.101 285.491 356.641C285.491 354.18 283.496 352.186 281.035 352.186C278.575 352.186 276.58 354.18 276.58 356.641C276.58 359.101 278.575 361.096 281.035 361.096Z" fill="#D0CDE1"/>
<path d="M466.131 326.885C468.592 326.885 470.586 324.89 470.586 322.43C470.586 319.969 468.592 317.974 466.131 317.974C463.67 317.974 461.676 319.969 461.676 322.43C461.676 324.89 463.67 326.885 466.131 326.885Z" fill="#D0CDE1"/>
<path d="M326.651 510.222C329.112 510.222 331.107 508.227 331.107 505.767C331.107 503.306 329.112 501.312 326.651 501.312C324.191 501.312 322.196 503.306 322.196 505.767C322.196 508.227 324.191 510.222 326.651 510.222Z" fill="#D0CDE1"/>
<path d="M304.721 308.294C308.057 308.294 310.761 305.59 310.761 302.254C310.761 298.918 308.057 296.214 304.721 296.214C301.385 296.214 298.681 298.918 298.681 302.254C298.681 305.59 301.385 308.294 304.721 308.294Z" fill="#D0CDE1"/>
<path d="M364.372 371.453C367.708 371.453 370.412 368.749 370.412 365.413C370.412 362.077 367.708 359.373 364.372 359.373C361.036 359.373 358.332 362.077 358.332 365.413C358.332 368.749 361.036 371.453 364.372 371.453Z" fill="#D0CDE1"/>
<path d="M441.569 498.648C444.904 498.648 447.609 495.944 447.609 492.609C447.609 489.273 444.904 486.569 441.569 486.569C438.233 486.569 435.529 489.273 435.529 492.609C435.529 495.944 438.233 498.648 441.569 498.648Z" fill="#D0CDE1"/>
<path d="M377.213 245.866C449.604 245.866 508.288 238.748 508.288 229.969C508.288 221.19 449.604 214.073 377.213 214.073C304.822 214.073 246.138 221.19 246.138 229.969C246.138 238.748 304.822 245.866 377.213 245.866Z" fill="#C69600"/>
<path d="M380.463 65.4328C380.463 65.4328 384.498 96.9373 345.531 107.513C306.563 118.088 296.528 140.943 296.528 140.943C296.528 140.943 254.853 152.377 280.353 178.263C280.353 178.263 221.18 219.093 278.977 235.924C336.774 252.755 492.915 241.365 486.369 209.465C486.369 209.465 494.491 194.668 475.666 191.7C475.666 191.7 501.881 155.962 435.695 135.236C435.695 135.236 446.459 124.071 417.661 127.247C417.661 127.247 435.613 54.1939 380.463 65.4328Z" fill="#D0CDE1"/>
<path d="M295.854 142.74L295.75 140.202C342.058 138.303 367.488 123.858 380.666 112.075C394.903 99.3444 398.294 86.8971 398.326 86.7725L400.785 87.412C400.648 87.9443 397.237 100.6 382.51 113.834C369.024 125.953 343.043 140.805 295.854 142.74Z" fill="#C69600"/>
<path d="M279.909 180.031L279.344 177.553C279.545 177.508 300.025 172.856 356.517 161.416C395.187 153.585 404.451 145.538 406.533 141.438C406.96 140.754 407.126 139.938 406.999 139.141L409.306 138.078C409.393 138.266 410.116 139.993 408.798 142.588C406.002 148.096 394.75 156.266 357.022 163.906C300.569 175.338 280.109 179.985 279.909 180.031Z" fill="#C69600"/>
<path d="M305.508 190.494C305.268 190.494 305.093 190.493 304.985 190.493L304.998 187.952C305.879 187.963 397.977 188.078 426.321 157.611C432.344 151.137 435.072 143.642 434.428 135.334L436.961 135.138C437.662 144.183 434.707 152.327 428.18 159.343C399.898 189.742 313.834 190.494 305.508 190.494Z" fill="#C69600"/>
<path d="M413.378 221.714C413.296 221.714 413.249 221.714 413.236 221.714L413.272 219.173C413.703 219.168 457.662 219.461 474.574 191.05L476.758 192.35C459.584 221.201 416.214 221.714 413.378 221.714Z" fill="#C69600"/>
<path d="M386.604 63.6784C386.604 63.6784 390.639 95.1829 351.671 105.758C312.704 116.333 302.669 139.188 302.669 139.188C302.669 139.188 260.993 150.623 286.493 176.509C286.493 176.509 227.32 217.338 285.117 234.17C342.914 251.001 499.055 239.611 492.51 207.71C492.51 207.71 500.631 192.914 481.806 189.945C481.806 189.945 508.021 154.208 441.835 133.481C441.835 133.481 452.599 122.317 423.802 125.493C423.802 125.493 441.754 52.4396 386.604 63.6784Z" fill="#D0CDE1"/>
<path d="M301.994 140.986L301.89 138.447C348.199 136.549 373.628 122.104 386.806 110.32C401.044 97.59 404.435 85.1428 404.467 85.0181L406.926 85.6577C406.788 86.1899 403.378 98.8456 388.651 112.08C375.165 124.199 349.183 139.051 301.994 140.986Z" fill="#C69600"/>
<path d="M286.049 178.276L285.485 175.798C285.685 175.753 306.166 171.101 362.658 159.661C401.328 151.831 410.592 143.784 412.673 139.684C413.101 138.999 413.266 138.183 413.139 137.387L415.447 136.323C415.534 136.512 416.257 138.238 414.939 140.834C412.143 146.342 400.891 154.511 363.162 162.151C306.71 173.584 286.25 178.23 286.049 178.276Z" fill="#C69600"/>
<path d="M311.649 188.74C311.409 188.74 311.233 188.739 311.125 188.738L311.139 186.198C312.019 186.209 404.118 186.324 432.461 155.857C438.484 149.382 441.212 141.887 440.568 133.58L443.102 133.384C443.803 142.429 440.848 150.573 434.321 157.589C406.038 187.988 319.974 188.74 311.649 188.74Z" fill="#C69600"/>
<path d="M419.519 219.96C419.437 219.96 419.389 219.959 419.376 219.959L419.413 217.418C419.844 217.414 463.802 217.707 480.714 189.295L482.898 190.596C465.725 219.446 422.355 219.96 419.519 219.96Z" fill="#C69600"/>
<path d="M95.9199 244.235C103.485 244.235 109.617 238.102 109.617 230.538C109.617 222.973 103.485 216.841 95.9199 216.841C88.355 216.841 82.2224 222.973 82.2224 230.538C82.2224 238.102 88.355 244.235 95.9199 244.235Z" fill="#4E4637"/>
<path d="M109.598 224.969L101.025 222.867C97.752 222.867 94.5203 222.14 91.5633 220.737C88.6064 219.335 85.9982 217.293 83.9275 214.759C81.8568 212.225 80.3753 209.262 79.5903 206.085C78.8053 202.908 78.7364 199.596 79.3885 196.389C79.3885 192.599 80.135 188.847 81.5853 185.345C83.0356 181.844 85.1613 178.663 87.8411 175.983C90.5209 173.303 93.7023 171.178 97.2036 169.727C100.705 168.277 104.458 167.531 108.247 167.531H108.248C112.037 167.531 115.79 168.277 119.291 169.727C122.793 171.178 125.974 173.303 128.654 175.983C131.334 178.663 133.459 181.844 134.91 185.345C136.36 188.847 137.106 192.599 137.106 196.389V196.389C138.211 200.251 138.282 204.335 137.312 208.232C136.342 212.13 134.366 215.704 131.58 218.598C128.795 221.492 125.299 223.603 121.441 224.721C117.583 225.839 113.499 225.925 109.598 224.969V224.969Z" fill="#4E4637"/>
<path d="M54.4524 312.752L75.6475 282.587L87.1538 303.954L74.0039 319.295L54.4524 312.752Z" fill="#4E4637"/>
<path d="M65.5114 309.708C65.5114 309.708 58.9367 306.968 55.1014 311.899C51.2661 316.83 44.6913 327.24 46.8829 328.884C49.0745 330.527 56.1972 323.953 56.1972 323.953L65.5114 309.708Z" fill="#4E4637"/>
<path d="M57.0398 332.229C60.2463 328.207 61.1194 323.57 58.9899 321.873C56.8604 320.175 52.5346 322.06 49.3281 326.082C46.1215 330.104 45.2484 334.741 47.3779 336.439C49.5075 338.136 53.8332 336.252 57.0398 332.229Z" fill="#E9D38F"/>
<path d="M44.1433 385.864C44.1433 385.864 45.2391 420.929 49.0744 441.2C52.9097 461.472 46.8828 534.341 46.8828 534.341L58.9366 539.82L66.6072 531.602C66.6072 531.602 63.8677 516.809 67.703 506.399C71.5383 495.989 73.182 451.062 73.182 451.062L79.7568 390.795L44.1433 385.864Z" fill="#E9D38F"/>
<path d="M89.0712 396.274L123.589 459.281L154.819 516.809V528.862L170.708 523.931L165.229 511.33C165.229 511.33 162.49 462.02 142.765 442.844L125.78 394.082L89.0712 396.274Z" fill="#E9D38F"/>
<path d="M68.5248 311.625H62.4979C62.4979 311.625 29.624 356.552 31.2677 383.946L78.387 403.122L80.0307 399.287C80.0307 399.287 118.932 406.409 128.794 398.191L115.096 328.062L114 318.2L68.5248 311.625Z" fill="#4E4637"/>
<path d="M53.4577 533.793C53.4577 533.793 61.1283 523.931 51.814 523.383C42.4997 522.835 42.4997 528.862 42.4997 528.862L21.6795 543.107C21.6795 543.107 -12.8382 555.709 11.8173 559.544C11.8173 559.544 22.2274 561.735 35.377 556.804C43.2748 553.839 51.6014 552.173 60.0324 551.874C60.0324 551.874 72.0862 551.326 72.0862 545.299C72.0862 539.272 66.206 528.862 66.206 528.862C66.206 528.862 56.7451 535.437 53.4577 533.793Z" fill="#4E4637"/>
<path d="M171.804 520.096C171.804 520.096 153.175 516.261 152.627 523.383C152.08 530.506 152.627 542.559 152.627 542.559C152.627 542.559 157.011 548.038 155.915 551.874C154.819 555.709 158.654 567.762 171.804 566.119C184.953 564.475 180.57 545.847 180.57 545.847L171.804 524.479V520.096Z" fill="#4E4637"/>
<path d="M112.083 217.388C122.22 217.388 130.438 209.171 130.438 199.034C130.438 188.897 122.22 180.68 112.083 180.68C101.946 180.68 93.7283 188.897 93.7283 199.034C93.7283 209.171 101.946 217.388 112.083 217.388Z" fill="#E9D38F"/>
<path d="M99.7551 209.17L99.4812 240.674L121.945 233.003C121.945 233.003 119.206 214.923 119.753 213.279L99.7551 209.17Z" fill="#E9D38F"/>
<path d="M95.6458 231.36C95.6458 231.36 119.205 223.141 121.945 224.237C124.684 225.333 125.78 231.36 125.78 231.36C125.78 231.36 138.93 228.62 140.574 237.386C142.217 246.153 130.163 284.505 130.163 284.505L118.11 306.968C118.11 306.968 124.137 316.282 113.727 319.569C103.316 322.857 65.5114 312.447 65.5114 312.447C65.5114 312.447 58.9366 304.776 65.5114 304.776C65.5114 304.776 67.703 297.654 69.8946 296.01C72.0861 294.367 68.2509 291.627 70.4425 291.079C72.6341 290.531 72.6341 289.436 72.6341 289.436C72.6341 289.436 61.6761 274.643 71.5383 262.589C81.4004 250.536 82.7702 239.304 87.7013 237.66C92.6324 236.017 95.6458 231.36 95.6458 231.36Z" fill="#4E4637"/>
<path d="M109.28 361.669C114.047 359.734 117.08 356.12 116.056 353.597C115.032 351.073 110.338 350.596 105.571 352.531C100.805 354.465 97.771 358.079 98.7953 360.603C99.8195 363.126 104.514 363.603 109.28 361.669Z" fill="#E9D38F"/>
<path d="M132.355 235.743H140.079C140.079 235.743 162.49 289.984 155.915 306.968C149.34 323.953 125.232 353.538 125.232 353.538C125.232 353.538 117.562 367.236 112.083 367.236C106.604 367.236 100.577 347.512 100.577 347.512L118.11 339.841L138.93 301.489L129.068 271.903L132.355 235.743Z" fill="#4E4637"/>
<path opacity="0.2" d="M72.3604 289.161L60.3063 310.529L62.4976 311.625L72.3604 289.161Z" fill="black"/>
<path opacity="0.2" d="M95.4012 337.242L79.4878 399.147L80.5493 399.42L96.4628 337.515L95.4012 337.242Z" fill="black"/>
<path d="M134.273 191.638L130.985 185.611L126.054 188.917C125.547 189.617 124.878 190.183 124.104 190.568C123.33 190.953 122.475 191.145 121.611 191.128L104.394 190.78C103.621 190.765 102.86 190.591 102.156 190.271C101.453 189.951 100.822 189.49 100.303 188.917C98.9496 189.419 97.7372 190.24 96.7687 191.31C95.8002 192.38 95.1042 193.668 94.7399 195.065L92.6324 203.143V175.749H125.506L134.273 191.638Z" fill="#4E4637"/>
</svg>
