<svg width="520" height="420" viewBox="0 0 520 420" fill="none" xmlns="http://www.w3.org/2000/svg">
<g clip-path="url(#clip0)">
<path d="M346.27 420L346.159 419.99L173.731 403.975L16.9363 418.538C12.8424 418.918 8.76521 417.656 5.60153 415.031C2.43784 412.406 0.44686 408.631 0.0665779 404.538C0.0223163 404.061 0.000167801 403.584 0.000129341 403.105V30.2626C-0.0156967 26.3955 1.42134 22.6635 4.02672 19.8054C6.6321 16.9473 10.2159 15.1715 14.0685 14.8296L173.731 0L173.841 0.0104733L346.27 16.0254L503.064 1.4624C507.157 1.08216 511.235 2.34349 514.398 4.96892C517.562 7.59435 519.553 11.3688 519.933 15.462C519.978 15.9385 520 16.4163 520 16.8954V389.737C520.016 393.604 518.579 397.336 515.973 400.194C513.368 403.053 509.784 404.828 505.932 405.17L346.27 420Z" fill="#4E4637"/>
<path d="M240.36 137.933C206.983 113.628 171.864 90.5816 135.988 69.4365L134.188 68.3754V140.091H243.324L240.36 137.933ZM136.572 137.707V72.5543C170.701 92.7397 204.121 114.642 235.99 137.707L136.572 137.707ZM409.281 285.317C394.846 270.312 380.038 255.649 364.855 241.328C360.67 237.375 356.458 233.455 352.221 229.566C326.362 205.816 299.652 183.228 272.092 161.803L271.77 161.552H134.188V287.338H411.225L409.281 285.317ZM136.572 284.953V163.937H270.953C297.528 184.605 323.383 206.43 348.518 229.411C352.883 233.399 357.218 237.419 361.523 241.471C376.571 255.611 391.269 270.106 405.614 284.953H136.572ZM409.281 285.317C394.846 270.312 380.038 255.649 364.855 241.328C360.67 237.375 356.458 233.455 352.221 229.566C326.362 205.816 299.652 183.228 272.092 161.803L271.77 161.552H134.188V287.338H411.225L409.281 285.317ZM136.572 284.953V163.937H270.953C297.528 184.605 323.383 206.43 348.518 229.411C352.883 233.399 357.218 237.419 361.523 241.471C376.571 255.611 391.269 270.106 405.614 284.953H136.572ZM240.36 137.933C206.983 113.628 171.864 90.5816 135.988 69.4365L134.188 68.3754V140.091H243.324L240.36 137.933ZM136.572 137.707V72.5543C170.701 92.7397 204.121 114.642 235.99 137.707L136.572 137.707ZM240.36 137.933C206.983 113.628 171.864 90.5816 135.988 69.4365L134.188 68.3754V140.091H243.324L240.36 137.933ZM136.572 137.707V72.5543C170.701 92.7397 204.121 114.642 235.99 137.707L136.572 137.707ZM409.281 285.317C394.846 270.312 380.038 255.649 364.855 241.328C360.67 237.375 356.458 233.455 352.221 229.566C326.362 205.816 299.652 183.228 272.092 161.803L271.77 161.552H134.188V287.338H411.225L409.281 285.317ZM136.572 284.953V163.937H270.953C297.528 184.605 323.383 206.43 348.518 229.411C352.883 233.399 357.218 237.419 361.523 241.471C376.571 255.611 391.269 270.106 405.614 284.953H136.572ZM16.1437 308.799V311.184H110.338V345.76H16.1437V348.144H112.723V308.799H16.1437ZM134.188 369.605V393.767L136.572 393.546V371.99H503.857V369.605L134.188 369.605ZM503.857 311.184V308.799H134.188V348.144H503.857V345.76H136.572V311.184L503.857 311.184ZM281.131 137.707C235.377 102.418 187.057 70.585 136.572 42.473V18.3293L134.187 18.5499V42.8805L136.024 44.8994C186.303 72.9348 234.427 104.669 279.998 139.841L280.32 140.091H503.857V137.707L281.131 137.707ZM110.338 137.707H16.1437V140.091H112.723V20.541L110.338 20.7616L110.338 137.707ZM503.857 161.552H307.342L309.912 163.663C334.107 183.568 357.863 204.679 381.18 226.997C384.496 230.168 387.799 233.365 391.09 236.588C407.475 252.595 423.539 269.124 439.284 286.175L441.25 287.338H503.857V284.953H441.401C425.827 268.071 409.915 251.677 393.666 235.772C390.416 232.588 387.155 229.427 383.881 226.287C361.069 204.403 337.77 183.619 313.984 163.937H503.857V161.552ZM16.1437 369.605V371.99H110.338V395.979L112.723 395.758V369.605H16.1437ZM16.1437 161.552V163.937H110.338V284.953H16.1437V287.338H112.723V161.552H16.1437ZM240.36 137.933C206.983 113.628 171.864 90.5816 135.988 69.4365L134.187 68.3754V140.091H243.324L240.36 137.933ZM136.572 137.707V72.5543C170.701 92.7397 204.121 114.642 235.99 137.707L136.572 137.707ZM409.281 285.317C394.846 270.312 380.038 255.649 364.855 241.328C360.67 237.375 356.458 233.455 352.221 229.566C326.362 205.816 299.652 183.228 272.092 161.803L271.77 161.552H134.188V287.338H411.225L409.281 285.317ZM136.572 284.953V163.937H270.953C297.528 184.605 323.383 206.43 348.518 229.411C352.883 233.399 357.218 237.419 361.523 241.471C376.571 255.611 391.269 270.106 405.614 284.953H136.572ZM240.36 137.933C206.983 113.628 171.864 90.5816 135.988 69.4365L134.188 68.3754V140.091H243.324L240.36 137.933ZM136.572 137.707V72.5543C170.701 92.7397 204.121 114.642 235.99 137.707L136.572 137.707ZM409.281 285.317C394.846 270.312 380.038 255.649 364.855 241.328C360.67 237.375 356.458 233.455 352.221 229.566C326.362 205.816 299.652 183.228 272.092 161.803L271.77 161.552H134.188V287.338H411.225L409.281 285.317ZM136.572 284.953V163.937H270.953C297.528 184.605 323.383 206.43 348.518 229.411C352.883 233.399 357.218 237.419 361.523 241.471C376.571 255.611 391.269 270.106 405.614 284.953H136.572Z" fill="white"/>
<path d="M266.331 156.919C266.331 187.115 211.647 254.382 211.647 254.382C211.647 254.382 156.964 187.115 156.964 156.919C156.964 142.419 162.725 128.512 172.98 118.259C183.236 108.005 197.144 102.245 211.647 102.245C226.15 102.245 240.059 108.005 250.315 118.259C260.57 128.512 266.331 142.419 266.331 156.919V156.919Z" fill="#C69600"/>
<path d="M236.646 154.542C236.646 159.485 235.18 164.318 232.433 168.428C229.687 172.538 225.782 175.742 221.215 177.634C216.647 179.525 211.62 180.02 206.771 179.056C201.922 178.091 197.468 175.711 193.972 172.216C190.476 168.72 188.095 164.267 187.13 159.418C186.166 154.57 186.661 149.544 188.553 144.977C190.445 140.41 193.649 136.507 197.76 133.76C201.871 131.014 206.704 129.548 211.648 129.548C214.931 129.547 218.183 130.192 221.216 131.448C224.25 132.703 227.006 134.544 229.328 136.865C231.65 139.187 233.491 141.942 234.747 144.976C236.002 148.009 236.648 151.259 236.646 154.542V154.542Z" fill="white"/>
<path d="M211.647 293.843C219.789 293.843 226.388 287.244 226.388 279.105C226.388 270.965 219.789 264.366 211.647 264.366C203.506 264.366 196.907 270.965 196.907 279.105C196.907 287.244 203.506 293.843 211.647 293.843Z" fill="#C69600"/>
<path d="M352.884 94.0855C364.921 94.0855 374.679 84.3296 374.679 72.295C374.679 60.2604 364.921 50.5044 352.884 50.5044C340.848 50.5044 331.09 60.2604 331.09 72.295C331.09 84.3296 340.848 94.0855 352.884 94.0855Z" fill="#0BCB9D"/>
<path d="M421.229 139.445H314.313C314.179 139.447 314.045 139.437 313.913 139.414L364.479 51.8403C364.788 51.2949 365.236 50.8412 365.777 50.5255C366.319 50.2098 366.934 50.0435 367.561 50.0435C368.188 50.0435 368.803 50.2098 369.345 50.5255C369.886 50.8412 370.334 51.2949 370.643 51.8403L404.579 110.609L406.205 113.421L421.229 139.445Z" fill="white"/>
<path opacity="0.2" d="M421.229 139.445H384.725L402.644 113.421L403.934 111.546L404.579 110.609L406.205 113.421L421.229 139.445Z" fill="#4E4637"/>
<path d="M480.759 139.445H388.285L406.205 113.421L407.494 111.546L430.845 77.6314C432.376 75.4087 436.059 75.2702 437.859 77.2122C437.979 77.3446 438.092 77.4847 438.195 77.6314L480.759 139.445Z" fill="white"/>
<path d="M487.62 262.895C493.712 262.895 498.651 257.957 498.651 251.866C498.651 245.775 493.712 240.837 487.62 240.837C481.529 240.837 476.59 245.775 476.59 251.866C476.59 257.957 481.529 262.895 487.62 262.895Z" fill="white"/>
<path d="M488.684 285.085H486.425L487.455 250.205L488.684 285.085Z" fill="#CBCBCB"/>
<path d="M487.654 256.816L490.079 253.46L487.621 257.646L487.355 257.181L487.654 256.816Z" fill="#CBCBCB"/>
<path d="M487.388 260.203L484.963 256.849L487.422 261.034L487.687 260.569L487.388 260.203Z" fill="#CBCBCB"/>
<path d="M456.256 252.312C465.254 252.312 472.547 245.019 472.547 236.023C472.547 227.028 465.254 219.735 456.256 219.735C447.259 219.735 439.965 227.028 439.965 236.023C439.965 245.019 447.259 252.312 456.256 252.312Z" fill="white"/>
<path d="M457.827 285.085H454.49L456.011 233.57L457.827 285.085Z" fill="#CBCBCB"/>
<path d="M456.306 243.333L459.887 238.378L456.257 244.56L455.864 243.873L456.306 243.333Z" fill="#CBCBCB"/>
<path d="M455.913 248.337L452.331 243.383L455.962 249.564L456.355 248.877L455.913 248.337Z" fill="#CBCBCB"/>
<path d="M78.031 262.895C84.123 262.895 89.0615 257.957 89.0615 251.866C89.0615 245.775 84.123 240.837 78.031 240.837C71.9391 240.837 67.0006 245.775 67.0006 251.866C67.0006 257.957 71.9391 262.895 78.031 262.895Z" fill="white"/>
<path d="M79.0947 285.085H76.8355L77.8653 250.205L79.0947 285.085Z" fill="#CBCBCB"/>
<path d="M78.0643 256.816L80.4901 253.46L78.0311 257.646L77.7657 257.181L78.0643 256.816Z" fill="#CBCBCB"/>
<path d="M77.7989 260.203L75.3731 256.849L77.8321 261.034L78.0975 260.569L77.7989 260.203Z" fill="#CBCBCB"/>
<path d="M46.6669 252.312C55.6642 252.312 62.9579 245.019 62.9579 236.023C62.9579 227.028 55.6642 219.735 46.6669 219.735C37.6696 219.735 30.3759 227.028 30.3759 236.023C30.3759 245.019 37.6696 252.312 46.6669 252.312Z" fill="white"/>
<path d="M48.2371 285.085H44.9005L46.4221 233.57L48.2371 285.085Z" fill="#CBCBCB"/>
<path d="M46.7163 243.333L50.298 238.378L46.6672 244.56L46.2749 243.873L46.7163 243.333Z" fill="#CBCBCB"/>
<path d="M46.324 248.337L42.7415 243.383L46.373 249.564L46.7653 248.877L46.324 248.337Z" fill="#CBCBCB"/>
</g>
<defs>
<clipPath id="clip0">
<rect width="520" height="420" fill="white"/>
</clipPath>
</defs>
</svg>
