<svg width="608" height="472" viewBox="0 0 608 472" fill="none" xmlns="http://www.w3.org/2000/svg">
<g clip-path="url(#clip0)">
<path d="M346.198 230.794C359.879 230.794 370.97 219.707 370.97 206.031C370.97 192.356 359.879 181.269 346.198 181.269C332.517 181.269 321.426 192.356 321.426 206.031C321.426 219.707 332.517 230.794 346.198 230.794Z" fill="#E6E6E6"/>
<path d="M406.91 237.853L381.022 211.975C383.007 208.89 384.351 205.438 384.977 201.824C385.602 198.21 385.495 194.507 384.663 190.935C383.83 187.362 382.289 183.993 380.13 181.028C377.971 178.062 375.239 175.559 372.095 173.668C366.175 170.133 359.142 168.949 352.39 170.351C345.638 171.753 339.659 175.639 335.637 181.238C331.936 186.426 330.159 192.739 330.61 199.095C331.062 205.45 333.714 211.449 338.111 216.061C342.508 220.673 348.375 223.61 354.704 224.367C361.032 225.124 367.427 223.653 372.788 220.207L398.675 246.084C399.767 247.175 401.248 247.787 402.792 247.787C404.335 247.787 405.816 247.173 406.907 246.082C407.999 244.991 408.612 243.511 408.613 241.968C408.613 240.425 408.001 238.944 406.91 237.853V237.853ZM371.821 211.009C368.613 214.216 364.393 216.211 359.878 216.656C355.364 217.1 350.835 215.966 347.063 213.447C343.291 210.928 340.51 207.179 339.193 202.84C337.876 198.501 338.106 193.839 339.841 189.65C341.577 185.461 344.713 182.003 348.713 179.865C352.714 177.727 357.332 177.043 361.781 177.927C366.231 178.812 370.235 181.211 373.113 184.716C375.991 188.222 377.564 192.616 377.564 197.15C377.567 199.725 377.061 202.274 376.076 204.653C375.09 207.031 373.644 209.191 371.821 211.009V211.009Z" fill="#4E4637"/>
<path d="M594.562 276.023C660.766 349.208 468.853 454.679 313.784 454.679C158.714 454.679 51.4297 372.958 33.0049 276.023C-11.6691 40.9877 413.638 -108.399 313.784 97.3661C168.234 397.293 542.426 218.388 594.562 276.023Z" fill="#E6E6E6"/>
<path d="M564.858 293.343C631.061 366.529 439.149 472 284.079 472C129.01 472 21.7255 390.279 3.30066 293.343C-41.3733 58.3085 383.934 -91.0785 284.079 114.687C138.53 414.614 512.721 235.708 564.858 293.343Z" fill="#4E4637"/>
<path d="M92.5743 121.756C46.1198 119.711 10.101 109.695 10.5742 98.9517C10.8579 92.511 24.005 87.3318 46.6443 84.7428C46.7253 84.733 46.8075 84.7393 46.886 84.7613C46.9646 84.7834 47.038 84.8208 47.1021 84.8713C47.1662 84.9218 47.2196 84.9846 47.2593 85.0558C47.299 85.1271 47.3243 85.2055 47.3335 85.2866C47.3428 85.3676 47.336 85.4497 47.3134 85.5281C47.2908 85.6065 47.2529 85.6797 47.2019 85.7434C47.1509 85.8071 47.0878 85.8601 47.0162 85.8993C46.9447 85.9385 46.8661 85.9632 46.7849 85.9719C25.4587 88.4111 12.0574 93.4055 11.8107 99.0061C11.3828 108.721 48.3928 118.573 92.6288 120.52C136.865 122.467 174.598 115.905 175.026 106.19C175.273 100.566 162.28 94.3958 141.115 90.0886C141.035 90.0726 140.959 90.041 140.891 89.9957C140.824 89.9503 140.766 89.892 140.721 89.8242C140.676 89.7564 140.645 89.6803 140.629 89.6005C140.613 89.5206 140.614 89.4384 140.63 89.3586C140.646 89.2789 140.678 89.2031 140.724 89.1357C140.769 89.0682 140.828 89.0105 140.896 88.9656C140.964 88.9208 141.04 88.8899 141.12 88.8745C141.2 88.8592 141.282 88.8598 141.362 88.8762C163.826 93.448 176.547 99.7784 176.262 106.244C175.789 116.987 139.029 123.801 92.5743 121.756Z" fill="#C69600"/>
<path d="M51.3158 123.555C55.202 130.935 60.9588 137.165 68.0102 141.622C75.0615 146.079 83.1602 148.607 91.4959 148.953C99.8316 149.299 108.112 147.451 115.509 143.593C122.905 139.735 129.159 134.003 133.643 126.971C106.159 127.341 78.675 126.201 51.3158 123.555V123.555Z" fill="#C69600"/>
<path d="M138.782 113.959C141.121 106.946 141.795 99.4856 140.751 92.1677C139.706 84.8498 136.972 77.8753 132.765 71.7962C128.558 65.7171 122.993 60.7002 116.511 57.1427C110.029 53.5852 102.807 51.5846 95.4181 51.2994C88.0288 51.0142 80.6745 52.452 73.9372 55.4993C67.1999 58.5465 61.2646 63.1194 56.601 68.8561C51.9374 74.5928 48.6736 81.3357 47.0678 88.5514C45.462 95.767 45.5584 103.257 47.3492 110.429C77.5459 115.553 108.28 116.74 138.782 113.959V113.959Z" fill="#C69600"/>
<path d="M104.481 82.0266C107.556 82.0266 110.05 79.534 110.05 76.4592C110.05 73.3845 107.556 70.8918 104.481 70.8918C101.405 70.8918 98.911 73.3845 98.911 76.4592C98.911 79.534 101.405 82.0266 104.481 82.0266Z" fill="white"/>
<path d="M75.8159 103.672C80.9425 103.672 85.0985 99.5174 85.0985 94.3928C85.0985 89.2681 80.9425 85.1138 75.8159 85.1138C70.6893 85.1138 66.5334 89.2681 66.5334 94.3928C66.5334 99.5174 70.6893 103.672 75.8159 103.672Z" fill="white"/>
<path d="M215.915 94.5826C219.333 94.5826 222.104 91.8131 222.104 88.3968C222.104 84.9804 219.333 82.2109 215.915 82.2109C212.498 82.2109 209.727 84.9804 209.727 88.3968C209.727 91.8131 212.498 94.5826 215.915 94.5826Z" fill="#C69600"/>
<path d="M76.0581 283.874C78.1088 283.874 79.7712 282.212 79.7712 280.163C79.7712 278.113 78.1088 276.451 76.0581 276.451C74.0074 276.451 72.345 278.113 72.345 280.163C72.345 282.212 74.0074 283.874 76.0581 283.874Z" fill="#E6E6E6"/>
<path d="M335.97 411.306C338.021 411.306 339.683 409.644 339.683 407.594C339.683 405.544 338.021 403.882 335.97 403.882C333.919 403.882 332.257 405.544 332.257 407.594C332.257 409.644 333.919 411.306 335.97 411.306Z" fill="#E6E6E6"/>
<path d="M94.0044 212.117C95.0297 212.117 95.8609 211.286 95.8609 210.261C95.8609 209.236 95.0297 208.405 94.0044 208.405C92.979 208.405 92.1478 209.236 92.1478 210.261C92.1478 211.286 92.979 212.117 94.0044 212.117Z" fill="#E6E6E6"/>
<path d="M247.476 350.683C248.501 350.683 249.333 349.852 249.333 348.827C249.333 347.802 248.501 346.971 247.476 346.971C246.451 346.971 245.62 347.802 245.62 348.827C245.62 349.852 246.451 350.683 247.476 350.683Z" fill="#E6E6E6"/>
<path d="M526.572 332.743C527.597 332.743 528.428 331.913 528.428 330.888C528.428 329.863 527.597 329.032 526.572 329.032C525.546 329.032 524.715 329.863 524.715 330.888C524.715 331.913 525.546 332.743 526.572 332.743Z" fill="#E6E6E6"/>
<path d="M439.316 387.799C440.341 387.799 441.172 386.968 441.172 385.943C441.172 384.918 440.341 384.087 439.316 384.087C438.29 384.087 437.459 384.918 437.459 385.943C437.459 386.968 438.29 387.799 439.316 387.799Z" fill="#E6E6E6"/>
<path d="M348.347 320.99C349.372 320.99 350.203 320.159 350.203 319.134C350.203 318.109 349.372 317.278 348.347 317.278C347.321 317.278 346.49 318.109 346.49 319.134C346.49 320.159 347.321 320.99 348.347 320.99Z" fill="#E6E6E6"/>
<path d="M230.767 137.885C231.793 137.885 232.624 137.054 232.624 136.029C232.624 135.004 231.793 134.173 230.767 134.173C229.742 134.173 228.911 135.004 228.911 136.029C228.911 137.054 229.742 137.885 230.767 137.885Z" fill="#E6E6E6"/>
<path d="M245.62 46.332C246.645 46.332 247.476 45.5012 247.476 44.4762C247.476 43.4512 246.645 42.6204 245.62 42.6204C244.594 42.6204 243.763 43.4512 243.763 44.4762C243.763 45.5012 244.594 46.332 245.62 46.332Z" fill="#E6E6E6"/>
<path d="M236.956 431.719C237.981 431.719 238.812 430.889 238.812 429.864C238.812 428.839 237.981 428.008 236.956 428.008C235.931 428.008 235.099 428.839 235.099 429.864C235.099 430.889 235.931 431.719 236.956 431.719Z" fill="#E6E6E6"/>
<path d="M145.368 392.748C146.393 392.748 147.224 391.917 147.224 390.892C147.224 389.867 146.393 389.036 145.368 389.036C144.343 389.036 143.511 389.867 143.511 390.892C143.511 391.917 144.343 392.748 145.368 392.748Z" fill="#E6E6E6"/>
<path d="M435.603 325.939C436.628 325.939 437.459 325.108 437.459 324.083C437.459 323.058 436.628 322.227 435.603 322.227C434.577 322.227 433.746 323.058 433.746 324.083C433.746 325.108 434.577 325.939 435.603 325.939Z" fill="#E6E6E6"/>
<path d="M91.8192 144.628C94.8952 144.628 97.3887 142.135 97.3887 139.06C97.3887 135.986 94.8952 133.493 91.8192 133.493C88.7432 133.493 86.2497 135.986 86.2497 139.06C86.2497 142.135 88.7432 144.628 91.8192 144.628Z" fill="white"/>
<path d="M217.772 224.489C217.772 241.117 192.053 279.863 184.537 290.831C184.311 291.163 184.006 291.434 183.651 291.622C183.296 291.809 182.9 291.907 182.498 291.907C182.096 291.907 181.701 291.809 181.345 291.622C180.99 291.434 180.686 291.163 180.459 290.831C172.943 279.863 147.224 241.117 147.224 224.489C147.224 219.858 148.137 215.273 149.91 210.995C151.682 206.717 154.28 202.83 157.556 199.556C160.831 196.282 164.72 193.685 169 191.913C173.279 190.141 177.866 189.229 182.498 189.229C187.13 189.229 191.717 190.141 195.997 191.913C200.276 193.685 204.165 196.282 207.441 199.556C210.716 202.83 213.314 206.717 215.087 210.995C216.86 215.273 217.772 219.858 217.772 224.489V224.489Z" fill="white"/>
<path d="M182.498 239.953C192.41 239.953 200.444 231.922 200.444 222.014C200.444 212.106 192.41 204.075 182.498 204.075C172.587 204.075 164.552 212.106 164.552 222.014C164.552 231.922 172.587 239.953 182.498 239.953Z" fill="#C69600"/>
<path d="M182.189 311.093C193.638 311.093 202.92 309.292 202.92 307.072C202.92 304.851 193.638 303.051 182.189 303.051C170.739 303.051 161.458 304.851 161.458 307.072C161.458 309.292 170.739 311.093 182.189 311.093Z" fill="white"/>
<path d="M505.499 196.665C505.343 196.969 505.21 197.285 505.103 197.61L475.533 205.823L470.204 200.611L461.283 207.621L469.819 217.766C470.509 218.585 471.446 219.159 472.49 219.401C473.533 219.643 474.627 219.54 475.607 219.107L507.549 205.013C508.633 205.765 509.92 206.169 511.239 206.172C512.558 206.175 513.847 205.776 514.934 205.029C516.021 204.282 516.855 203.222 517.324 201.989C517.794 200.757 517.877 199.411 517.562 198.13C517.248 196.85 516.551 195.695 515.564 194.82C514.577 193.945 513.347 193.391 512.037 193.232C510.728 193.073 509.401 193.316 508.233 193.929C507.065 194.543 506.112 195.497 505.499 196.665H505.499Z" fill="#E9D38F"/>
<path d="M474.491 206.305L463.392 214.94C463.076 215.186 462.711 215.36 462.322 215.452C461.932 215.544 461.527 215.551 461.135 215.473C460.743 215.394 460.372 215.232 460.048 214.998C459.724 214.763 459.454 214.461 459.257 214.113L452.359 201.909C451.11 200.287 450.556 198.236 450.818 196.206C451.08 194.176 452.136 192.333 453.756 191.08C455.376 189.828 457.426 189.268 459.457 189.525C461.489 189.781 463.336 190.833 464.593 192.448L474.704 202.095C474.993 202.371 475.22 202.706 475.368 203.078C475.516 203.45 475.582 203.849 475.562 204.248C475.541 204.648 475.435 205.038 475.251 205.393C475.066 205.748 474.807 206.059 474.491 206.305V206.305Z" fill="#C69600"/>
<path d="M508.335 192.58L519.59 197.642C520.062 197.854 520.429 198.245 520.613 198.728C520.796 199.211 520.78 199.747 520.568 200.218L519.235 203.179C519.392 203.25 519.514 203.38 519.575 203.541C519.637 203.702 519.631 203.88 519.561 204.037L519.028 205.222C518.957 205.378 518.827 205.501 518.666 205.562C518.505 205.623 518.326 205.617 518.169 205.547L517.636 206.732C517.793 206.803 517.915 206.933 517.976 207.094C518.037 207.255 518.032 207.433 517.962 207.59L517.429 208.775C517.358 208.931 517.228 209.054 517.067 209.115C516.906 209.176 516.727 209.17 516.57 209.1L509.374 225.089C509.162 225.56 508.771 225.928 508.288 226.111C507.805 226.294 507.269 226.278 506.797 226.066L495.542 221.004C495.071 220.792 494.703 220.402 494.519 219.919C494.336 219.436 494.352 218.899 494.564 218.428L505.758 193.557C505.97 193.086 506.361 192.719 506.844 192.535C507.327 192.352 507.864 192.368 508.335 192.58V192.58Z" fill="#4E4637"/>
<path d="M497.586 219.429L506.615 223.494C507.067 223.696 507.581 223.711 508.045 223.536C508.509 223.361 508.884 223.009 509.09 222.559L513.26 213.286L514.709 210.072L518.483 201.682C518.684 201.231 518.699 200.718 518.524 200.256C518.349 199.794 517.998 199.419 517.547 199.215L514.709 197.936L508.512 195.15C508.059 194.948 507.545 194.934 507.083 195.11C506.62 195.287 506.246 195.64 506.043 196.092L502.393 204.202L498.235 213.435L496.65 216.961C496.448 217.413 496.433 217.926 496.608 218.388C496.783 218.851 497.135 219.225 497.586 219.429V219.429Z" fill="#F2F2F2"/>
<path d="M478.719 334.318L486.305 334.317L489.915 305.065L478.717 305.065L478.719 334.318Z" fill="#E9D38F"/>
<path d="M476.784 331.841L491.725 331.841H491.725C492.976 331.841 494.214 332.087 495.369 332.565C496.524 333.044 497.574 333.745 498.458 334.628C499.342 335.512 500.044 336.562 500.522 337.716C501.001 338.871 501.247 340.109 501.247 341.359V341.668L476.784 341.669L476.784 331.841Z" fill="#453E32"/>
<path d="M498.521 332.462L506.108 332.461L509.718 303.209L498.52 303.21L498.521 332.462Z" fill="#E9D38F"/>
<path d="M496.586 329.986L511.527 329.985H511.528C512.778 329.985 514.017 330.231 515.172 330.71C516.327 331.188 517.377 331.889 518.261 332.773C519.145 333.657 519.846 334.706 520.325 335.861C520.804 337.015 521.05 338.253 521.05 339.503V339.812L496.587 339.813L496.586 329.986Z" fill="#453E32"/>
<path d="M444.687 265.675C446.304 270.465 449.37 274.634 453.461 277.605C457.552 280.576 462.466 282.203 467.522 282.26L467.906 282.266C471.823 282.377 476.421 281.115 480.933 279.303C489.844 275.721 498.402 269.987 500.673 268.409L496.824 305.395L495.265 320.39C495.226 320.778 495.268 321.17 495.389 321.54C495.51 321.911 495.708 322.252 495.969 322.542C496.23 322.831 496.549 323.063 496.906 323.222C497.262 323.381 497.647 323.464 498.037 323.464H507.648C508.264 323.465 508.863 323.261 509.351 322.885C509.839 322.509 510.189 321.982 510.346 321.386L526.213 260.98C526.689 259.172 526.727 257.276 526.325 255.451C525.922 253.625 525.09 251.921 523.898 250.48C522.706 249.04 521.188 247.904 519.47 247.166C517.751 246.428 515.882 246.11 514.016 246.239L481.056 248.496L483.358 239.292L453.939 237.337L453.852 237.399C453.147 237.912 452.46 238.45 451.804 239.013C450.164 240.4 448.71 241.993 447.478 243.752C445.275 246.908 443.87 250.552 443.384 254.37C442.898 258.188 443.345 262.067 444.687 265.675Z" fill="#453E32"/>
<path d="M444.687 265.675C446.304 270.465 449.37 274.634 453.461 277.605C457.552 280.576 462.466 282.203 467.522 282.26C472.358 279.813 477.024 277.046 481.489 273.976L480.933 279.303L476.081 325.957C476.042 326.345 476.084 326.737 476.205 327.108C476.327 327.478 476.524 327.819 476.785 328.109C477.046 328.399 477.365 328.63 477.722 328.789C478.078 328.948 478.463 329.031 478.853 329.032H488.464C489.08 329.032 489.679 328.828 490.167 328.452C490.655 328.076 491.005 327.549 491.162 326.953L496.824 305.395L507.029 266.547C507.505 264.739 507.543 262.844 507.141 261.018C506.738 259.192 505.907 257.488 504.715 256.048C503.522 254.607 502.004 253.471 500.286 252.733C498.567 251.996 496.698 251.678 494.832 251.806L461.872 254.064L464.174 244.859L447.478 243.752C445.275 246.908 443.87 250.552 443.384 254.37C442.898 258.188 443.345 262.067 444.687 265.675V265.675Z" fill="#453E32"/>
<path d="M451.762 241.147L451.541 241.121L446.407 215.891C446.363 215.672 442.167 193.91 455.032 182.533L455.256 180.976C455.313 180.578 455.456 180.197 455.675 179.859C455.894 179.521 456.184 179.235 456.524 179.02C456.865 178.804 457.248 178.666 457.647 178.613C458.046 178.56 458.452 178.595 458.837 178.714L470.957 182.472C471.643 182.683 472.221 183.151 472.569 183.779C472.917 184.406 473.009 185.144 472.825 185.838L471.647 190.318C473.281 192.235 492.511 215.378 485.812 233.208L482.812 244.932L451.762 241.147Z" fill="#C69600"/>
<path d="M502.086 221.457C501.796 221.639 501.521 221.844 501.264 222.069L471.623 214.115L469.685 206.918L458.438 208.422L460.629 221.496C460.806 222.552 461.321 223.522 462.097 224.261C462.873 225 463.867 225.467 464.931 225.593L499.606 229.687C500.157 230.885 501.059 231.887 502.194 232.56C503.328 233.233 504.641 233.545 505.957 233.454C507.273 233.363 508.53 232.873 509.561 232.051C510.592 231.228 511.348 230.111 511.728 228.849C512.109 227.586 512.096 226.238 511.691 224.983C511.286 223.728 510.508 222.626 509.462 221.823C508.415 221.021 507.149 220.556 505.831 220.49C504.514 220.425 503.207 220.762 502.086 221.457H502.086Z" fill="#E9D38F"/>
<path d="M470.481 214L456.531 215.796C456.135 215.848 455.731 215.813 455.349 215.694C454.967 215.575 454.615 215.375 454.317 215.108C454.019 214.841 453.782 214.513 453.622 214.147C453.463 213.78 453.384 213.383 453.391 212.983L453.658 198.969C453.407 196.937 453.973 194.89 455.231 193.275C456.489 191.66 458.336 190.61 460.368 190.354C462.399 190.098 464.449 190.659 466.068 191.912C467.687 193.165 468.743 195.008 469.004 197.039L472.805 210.483C472.914 210.868 472.938 211.272 472.877 211.667C472.815 212.063 472.669 212.44 472.449 212.774C472.228 213.108 471.938 213.39 471.599 213.602C471.259 213.813 470.878 213.949 470.481 214V214Z" fill="#C69600"/>
<path d="M466.554 175.289C474.949 175.289 481.754 168.487 481.754 160.096C481.754 151.705 474.949 144.902 466.554 144.902C458.16 144.902 451.355 151.705 451.355 160.096C451.355 168.487 458.16 175.289 466.554 175.289Z" fill="#E9D38F"/>
<path d="M465.755 161.365L463.852 157.901C460.247 172.582 466.614 184.731 466.614 184.731L441.902 173.225L442.138 169.142L439.693 171.916L436.179 169.981L435.715 167.333L433.063 167.989L442.744 150.429C452.139 133.719 465.799 140.098 465.799 140.098C487.529 139.066 484.875 160.497 484.875 160.497L465.755 161.365Z" fill="#453E32"/>
<path d="M292.735 274.588C296.239 272.342 291.978 259.447 283.216 245.785C274.455 232.123 264.511 222.869 261.007 225.114C257.503 227.36 261.764 240.256 270.526 253.917C279.287 267.579 289.231 276.834 292.735 274.588Z" fill="#4E4637"/>
</g>
<defs>
<clipPath id="clip0">
<rect width="608" height="472" fill="white"/>
</clipPath>
</defs>
</svg>
