<svg width="1136" height="202" viewBox="0 0 1136 202" fill="none" xmlns="http://www.w3.org/2000/svg">
<path d="M212.5 100.185C166.9 100.185 43.5 144.169 0 144.169V0H21.2667H128.567H258.1H386.667H515.233H644.767H773.333H901.9H1031.43H1136V94.4839C1114.73 124.923 1073.97 182.633 1031.43 197.852C987.933 213.071 945.4 182.633 901.9 167.413C859.367 152.194 815.867 152.194 773.333 157.267C730.8 162.34 687.3 172.486 644.767 182.633L642.889 183.071C600.042 193.068 558.107 202.852 515.233 197.852C472.7 192.779 429.2 172.486 386.667 152.194C344.133 131.901 258.1 100.185 212.5 100.185Z" fill="#6D4B31"/>
</svg>
